<svg width="44" height="44" viewBox="0 0 44 44" fill="none" xmlns="http://www.w3.org/2000/svg">
<g opacity="0.3">
<path d="M9.4149 26.5708L5.69355 34.0134C5.4094 34.5817 5.43976 35.2568 5.77381 35.7972C6.10786 36.3377 6.69794 36.6666 7.33334 36.6666H11L13.2 39.5999C13.5812 40.1083 14.1985 40.383 14.8313 40.3259C15.4642 40.2689 16.0223 39.8881 16.3065 39.32L19.7151 32.5027C19.5776 32.44 19.4423 32.3713 19.3092 32.2967L17.9687 31.5446L16.4319 31.5256C14.5157 31.5019 12.75 30.4824 11.7713 28.8348L10.9864 27.5133L9.66495 26.7285C9.5799 26.678 9.49654 26.6254 9.4149 26.5708Z" fill="white"/>
<path d="M24.2852 32.5027L27.6939 39.32C27.978 39.8881 28.5361 40.2689 29.169 40.3259C29.8018 40.383 30.4191 40.1083 30.8003 39.5999L33.0003 36.6666H36.6669C37.3024 36.6666 37.8923 36.3377 38.2266 35.7972C38.5606 35.2568 38.5908 34.5817 38.3067 34.0134L34.5854 26.5708C34.5038 26.6254 34.4204 26.678 34.3353 26.7285L33.0138 27.5133L32.229 28.8348C31.2504 30.4824 29.4847 31.5019 27.5685 31.5256L26.0316 31.5446L24.6911 32.2967C24.558 32.3713 24.4227 32.44 24.2852 32.5027Z" fill="white"/>
</g>
<path fill-rule="evenodd" clip-rule="evenodd" d="M22.8962 3.90114C22.3393 3.58862 21.6595 3.58862 21.1025 3.90114L18.9474 5.11001L16.4767 5.14061C15.8379 5.14853 15.2493 5.48833 14.9231 6.03755L13.6612 8.16198L11.5368 9.42384C10.9876 9.75006 10.6478 10.3386 10.6399 10.9774L10.6093 13.4481L9.40041 15.6031C9.08788 16.1603 9.08788 16.8399 9.40041 17.397L10.6093 19.552L10.6399 22.0228C10.6478 22.6616 10.9876 23.2501 11.5368 23.5764L13.6612 24.8383L14.9231 26.9626C15.2493 27.5118 15.8379 27.8517 16.4766 27.8596L18.9474 27.8902L21.1025 29.0991C21.6595 29.4115 22.3393 29.4115 22.8962 29.0991L25.0513 27.8902L27.5221 27.8596C28.1608 27.8517 28.7493 27.5118 29.0757 26.9626L30.3375 24.8383L32.4618 23.5764C33.0111 23.2501 33.351 22.6616 33.3589 22.0228L33.3895 19.552L34.5984 17.397C34.9108 16.8399 34.9108 16.1603 34.5984 15.6031L33.3895 13.4481L33.3589 10.9774C33.351 10.3386 33.0111 9.75006 32.4618 9.42384L30.3375 8.16198L29.0757 6.03755C28.7493 5.48833 28.1608 5.14853 27.5221 5.14061L25.0513 5.11001L22.8962 3.90114ZM21.9994 11.0001C18.9617 11.0001 16.4994 13.4625 16.4994 16.5001C16.4994 19.5377 18.9617 22.0001 21.9994 22.0001C25.037 22.0001 27.4994 19.5377 27.4994 16.5001C27.4994 13.4625 25.037 11.0001 21.9994 11.0001Z" fill="white"/>
</svg>
