<svg width="44" height="44" viewBox="0 0 44 44" fill="none" xmlns="http://www.w3.org/2000/svg">
<path d="M25.8908 4.44569L24.6753 2.76854C24.5061 2.53501 24.4216 2.41826 24.2925 2.35798C24.1636 2.29772 24.0269 2.30722 23.7533 2.32623C20.6372 2.54273 17.7978 3.76455 15.5568 5.66975C15.4385 5.77036 15.511 5.95349 15.6661 5.96262C17.4639 6.06846 18.4207 7.0673 19.4686 8.17518C21.0884 9.88764 22.362 9.74606 22.9591 9.43043C23.2031 9.30145 23.2481 9.21019 23.2635 9.17873L23.2646 9.17646C23.3133 9.07803 23.3337 8.97281 23.4063 8.57443C23.467 8.24149 23.5724 7.66995 23.9376 7.11812C24.3239 6.53455 24.9004 6.10911 25.6607 5.80767C25.9777 5.68201 26.0752 5.50609 26.1104 5.34021C26.1543 5.1335 26.1189 4.80456 25.8908 4.44569Z" fill="white"/>
<path d="M27.6301 29.9829C27.8407 30.1592 27.946 30.2476 28.0791 30.2762C28.2122 30.3048 28.3377 30.2696 28.5891 30.1994C33.1149 28.9316 36.7278 25.478 38.219 21.0481C38.4147 20.4668 38.5126 20.1762 38.3479 19.947C38.1833 19.718 37.8597 19.718 37.2125 19.718H36.6673C35.751 19.718 35.2494 20.0561 34.5137 20.5626L34.4875 20.5806C33.7266 21.1044 32.6156 21.8694 30.8976 21.5257C28.6336 21.0727 27.5511 21.1931 27.0843 21.4089C26.9103 21.4894 26.8405 21.5743 26.7911 21.6736C26.7257 21.8056 26.6602 22.0467 26.6602 22.4715L26.6604 22.6314C26.6608 23.5686 26.6612 24.2768 26.5004 24.9227C26.333 25.5948 26.0002 26.1662 25.5907 26.8699L25.5206 26.9899C25.2548 27.4475 25.204 27.7009 25.2093 27.8188C25.2112 27.8586 25.2191 27.8925 25.2466 27.9398C25.2785 27.9942 25.358 28.1008 25.5498 28.243C25.5718 28.2592 25.5932 28.276 25.614 28.2936L27.6301 29.9829Z" fill="white"/>
<path opacity="0.4" d="M28.4908 3.51034C28.3119 3.12072 28.2224 2.92591 28.3009 2.83653C28.3792 2.74718 28.5671 2.80515 28.9429 2.92112C34.7428 4.71119 38.9577 10.1171 38.9577 16.508C38.9577 16.7636 38.7474 16.9666 38.4918 16.9666H36.666C34.8814 16.9666 33.7752 17.7294 33.0157 18.2532L32.9537 18.2958C32.2182 18.8021 31.9599 18.9326 31.4357 18.8276C29.1164 18.3636 27.2581 18.297 25.9295 18.9114C25.206 19.2458 24.6646 19.7701 24.3271 20.4492C24.0059 21.096 23.9089 21.8029 23.9089 22.4717C23.9089 23.6408 23.899 23.9827 23.8307 24.2574C23.7692 24.5041 23.6537 24.7265 23.1422 25.6069C22.788 26.2161 22.4203 27.0297 22.4608 27.9409C22.5048 28.9361 23.0169 29.7781 23.8758 30.4273C23.9878 30.5212 23.9168 30.701 23.7711 30.6911C16.3804 30.1882 10.541 24.0304 10.541 16.508C10.541 13.9833 11.1988 11.6122 12.3523 9.55715C12.5745 9.16113 12.6857 8.96313 12.9002 8.83751C13.1147 8.71191 13.3617 8.71191 13.8555 8.71191H15.5387C16.1153 8.75262 16.4083 8.94547 17.4688 10.0667C19.6976 12.423 22.2725 12.9041 24.2411 11.8634C24.9532 11.4871 25.4317 10.9923 25.726 10.3984C25.9597 9.92666 26.0457 9.43158 26.0941 9.15297L26.1091 9.06792C26.1671 8.74989 26.201 8.67806 26.2279 8.63736C26.2367 8.62372 26.3108 8.50868 26.671 8.36585C27.826 7.90795 28.5671 6.99809 28.7977 5.91213C28.9737 5.08347 28.8336 4.25687 28.4908 3.51034Z" fill="white"/>
<path fill-rule="evenodd" clip-rule="evenodd" d="M13.2318 2.3886C13.9376 3.11457 13.9213 4.27527 13.1953 4.98107C10.1398 7.95173 8.25065 12.0825 8.25065 16.6512C8.25065 25.666 15.6236 32.9999 24.7507 32.9999C29.2531 32.9999 33.329 31.2155 36.306 28.3213C37.032 27.6154 38.1927 27.6319 38.8985 28.3577C39.6043 29.0837 39.588 30.2444 38.862 30.9503C35.2252 34.486 30.2415 36.6666 24.7507 36.6666V38.4999H26.584C27.5965 38.4999 28.4173 39.3207 28.4173 40.3333C28.4173 41.3458 27.5965 42.1666 26.584 42.1666H19.2507C18.2381 42.1666 17.4173 41.3458 17.4173 40.3333C17.4173 39.3207 18.2381 38.4999 19.2507 38.4999H21.084V36.3364C11.7063 34.6259 4.58398 26.474 4.58398 16.6512C4.58398 11.0474 6.90651 5.98126 10.6393 2.3521C11.3653 1.64629 12.526 1.66263 13.2318 2.3886Z" fill="white"/>
</svg>
