<svg width="44" height="44" viewBox="0 0 44 44" fill="none" xmlns="http://www.w3.org/2000/svg">
<path opacity="0.4" d="M14.693 3.896C14.9922 3.76543 15.4318 3.61461 15.9532 3.68442C16.52 3.76032 16.9401 4.08381 17.1817 4.28577C17.4383 4.50023 18.0834 5.1401 18.0834 5.1401C19.1524 6.20005 20.5758 6.73021 21.9994 6.73061C23.4229 6.73021 24.8463 6.20005 25.9154 5.1401C25.9154 5.1401 26.5605 4.50023 26.817 4.28577C27.0586 4.08381 27.4788 3.76032 28.0455 3.68442C28.5669 3.61461 29.0065 3.76543 29.3057 3.896C29.5809 4.01605 29.8911 4.1913 30.1923 4.36129L34.3157 6.72355C34.583 6.91266 34.9443 7.21371 35.1517 7.70087C35.3779 8.2327 35.305 8.76873 35.2512 9.07876C35.1929 9.41427 35.0723 9.87617 34.9568 10.3182C34.2303 13.099 36.0047 16.0905 38.8774 16.8604L38.928 16.8739C39.3627 16.9903 39.7699 17.0995 40.0883 17.2143C40.3864 17.3217 40.8843 17.5234 41.2352 17.9786C41.5577 18.397 41.6432 18.8555 41.6769 19.18C41.7079 19.4794 41.7077 19.8375 41.7077 20.186V23.8143C41.7077 24.1629 41.7079 24.5209 41.6769 24.8201C41.6432 25.1448 41.5577 25.6033 41.2352 26.0217C40.8843 26.4769 40.3864 26.6786 40.0885 26.786C39.77 26.9008 38.8776 27.14 38.8776 27.14C36.006 27.9096 34.2326 30.9007 34.9596 33.6819C34.9596 33.6819 35.1959 34.5857 35.254 34.9212C35.3079 35.2312 35.3809 35.7673 35.1546 36.2992C34.9473 36.7863 34.5861 37.0875 34.3186 37.2765L30.1953 39.6388C29.8942 39.8087 29.5837 39.9842 29.3087 40.1042C29.0093 40.2348 28.5697 40.3857 28.0483 40.3158C27.4814 40.2397 27.0614 39.9163 26.8197 39.7143C26.5633 39.4998 25.9181 38.8598 25.9181 38.8598C24.8485 37.799 23.424 37.2683 21.9994 37.2679C20.5747 37.2683 19.1502 37.799 18.0806 38.8598C18.0806 38.8598 17.4355 39.4998 17.179 39.7143C16.9374 39.9163 16.5173 40.2397 15.9504 40.3158C15.429 40.3857 14.9894 40.2348 14.6901 40.1042C14.4151 39.9842 14.1047 39.8089 13.8037 39.639L9.68 37.2765C9.41266 37.0875 9.05142 36.7863 8.84411 36.2992C8.6178 35.7673 8.69086 35.2312 8.74467 34.9212C8.80288 34.5857 9.03919 33.6819 9.03919 33.6819C9.76609 30.9007 7.99274 27.9096 5.12121 27.14C5.12121 27.14 4.22875 26.9008 3.91026 26.786C3.61232 26.6786 3.11435 26.4769 2.76347 26.0217C2.44101 25.6033 2.35554 25.1448 2.3219 24.8201C2.29088 24.5209 2.29095 24.1629 2.29102 23.8143V20.186C2.29095 19.8375 2.29088 19.4794 2.3219 19.18C2.35554 18.8555 2.44103 18.397 2.76351 17.9786C3.11441 17.5234 3.61238 17.3217 3.91035 17.2143C4.22884 17.0995 4.63608 16.9903 5.07069 16.8739L5.12129 16.8604C7.99388 16.0905 9.7684 13.099 9.04196 10.3182C8.92644 9.87617 8.80574 9.41427 8.74755 9.07876C8.69377 8.76873 8.62075 8.2327 8.8471 7.70087C9.05443 7.21371 9.41565 6.91266 9.68297 6.72355L13.8064 4.36129C14.1075 4.1913 14.4179 4.01605 14.693 3.896Z" fill="white"/>
<path d="M21.9993 16.0417C18.7087 16.0417 16.041 18.7094 16.041 22.0001C16.041 22.4032 16.0872 22.8275 16.1627 23.206L17.3604 22.0089C17.8974 21.4719 18.7679 21.4719 19.3049 22.0089C19.8419 22.5459 19.8419 23.4165 19.3049 23.9535L18.3073 24.951C17.9658 25.2931 17.5211 25.7384 17.1443 25.9933C16.6577 26.3225 15.9975 26.5662 15.2165 26.3297C14.5068 26.1146 14.0728 25.6334 13.8271 25.077C13.6512 24.6788 13.5378 24.1069 13.4596 23.7124C13.3489 23.1576 13.291 22.5849 13.291 22.0001C13.291 17.1906 17.1899 13.2917 21.9993 13.2917C23.1516 13.2917 24.2549 13.5163 25.2652 13.9253C25.9692 14.2102 26.3088 15.0118 26.0239 15.7157C25.739 16.4196 24.9373 16.7593 24.2334 16.4743C23.5454 16.1958 22.7921 16.0417 21.9993 16.0417Z" fill="white"/>
<path d="M27.8656 20.9436L26.7529 22.0557C26.2159 22.5926 25.3455 22.5926 24.8085 22.0557C24.2715 21.5187 24.2715 20.6482 24.8085 20.1112L25.7884 19.1311C26.1356 18.7835 26.5232 18.3954 26.9045 18.138C27.3975 17.8053 28.0674 17.561 28.8559 17.8102C29.168 17.9089 29.4688 18.0733 29.7275 18.3273C29.9792 18.5743 30.1356 18.8521 30.2388 19.1012C30.4075 19.5077 30.5085 20.0898 30.5783 20.4924C30.6641 20.9832 30.7087 21.487 30.7087 22.0001C30.7087 26.8097 26.8099 30.7084 22.0004 30.7084C20.8481 30.7084 19.7448 30.4839 18.7345 30.0748C18.0305 29.7899 17.6909 28.9884 17.9758 28.2844C18.2608 27.5806 19.0624 27.2409 19.7663 27.5258C20.4543 27.8044 21.2076 27.9584 22.0004 27.9584C25.291 27.9584 27.9587 25.2908 27.9587 22.0001C27.9587 21.6463 27.924 21.2785 27.8656 20.9436Z" fill="white"/>
</svg>
