<svg width="44" height="44" viewBox="0 0 44 44" fill="none" xmlns="http://www.w3.org/2000/svg">
<path opacity="0.4" d="M2.29102 22.0001C2.29102 11.1155 11.1147 2.29175 21.9993 2.29175C32.884 2.29175 41.7077 11.1155 41.7077 22.0001C41.7077 32.8848 32.884 41.7084 21.9993 41.7084C11.1147 41.7084 2.29102 32.8848 2.29102 22.0001Z" fill="white"/>
<path fill-rule="evenodd" clip-rule="evenodd" d="M13.8404 26.4006C14.4476 25.9446 15.3095 26.0671 15.7655 26.6743C17.1892 28.57 19.4516 29.7917 21.9993 29.7917C24.5473 29.7917 26.8096 28.57 28.2332 26.6743C28.6894 26.0671 29.5512 25.9446 30.1586 26.4006C30.7658 26.8567 30.8883 27.7186 30.4321 28.326C28.5115 30.8833 25.4489 32.5417 21.9993 32.5417C18.5499 32.5417 15.4874 30.8833 13.5667 28.326C13.1106 27.7186 13.2331 26.8567 13.8404 26.4006Z" fill="white"/>
<path d="M28.4716 13.6945C28.9908 14.2137 29.008 15.0447 28.5233 15.5846C29.9309 15.6156 31.3273 16.2568 32.266 17.5084C32.7216 18.1159 32.5986 18.9778 31.991 19.4334C31.3835 19.889 30.5216 19.766 30.066 19.1584C29.241 18.0584 27.591 18.0584 26.766 19.1584C26.4109 19.632 25.7927 19.825 25.2311 19.6378C24.6698 19.4506 24.291 18.9252 24.291 18.3334C24.291 17.0034 24.9347 15.8058 25.4387 15.0499C25.7054 14.6495 25.9703 14.3186 26.1689 14.087C26.2688 13.9705 26.4652 13.7608 26.5271 13.6945C27.0641 13.1575 27.9346 13.1575 28.4716 13.6945Z" fill="white"/>
<path d="M15.5285 13.6945C15.0093 14.2137 14.9921 15.0447 15.4769 15.5846C14.0691 15.6156 12.6728 16.2568 11.7341 17.5084C11.2784 18.1159 11.4016 18.9778 12.0091 19.4334C12.6166 19.889 13.4784 19.766 13.9341 19.1584C14.7591 18.0584 16.4091 18.0584 17.2341 19.1584C17.5892 19.632 18.2074 19.825 18.7689 19.6378C19.3303 19.4506 19.7091 18.9252 19.7091 18.3334C19.7091 17.0034 19.0654 15.8058 18.5614 15.0499C18.2946 14.6495 18.0297 14.3186 17.8312 14.087C17.7313 13.9705 17.5349 13.7608 17.473 13.6945C16.936 13.1575 16.0654 13.1575 15.5285 13.6945Z" fill="white"/>
</svg>
