<svg width="20" height="20" viewBox="0 0 20 20" fill="none" xmlns="http://www.w3.org/2000/svg">
<path d="M10 3.33366C9.22645 3.33366 8.48459 3.64095 7.93761 4.18793C7.39062 4.73491 7.08333 5.47678 7.08333 6.25033C7.08333 7.02387 7.39062 7.76574 7.93761 8.31272C8.48459 8.8597 9.22645 9.16699 10 9.16699C10.7735 9.16699 11.5154 8.8597 12.0624 8.31272C12.6094 7.76574 12.9167 7.02387 12.9167 6.25033C12.9167 5.47678 12.6094 4.73491 12.0624 4.18793C11.5154 3.64095 10.7735 3.33366 10 3.33366ZM5.41667 6.25033C5.41667 5.03475 5.89955 3.86896 6.75909 3.00942C7.61864 2.14988 8.78442 1.66699 10 1.66699C11.2156 1.66699 12.3814 2.14988 13.2409 3.00942C14.1004 3.86896 14.5833 5.03475 14.5833 6.25033C14.5833 7.4659 14.1004 8.63169 13.2409 9.49123C12.3814 10.3508 11.2156 10.8337 10 10.8337C8.78442 10.8337 7.61864 10.3508 6.75909 9.49123C5.89955 8.63169 5.41667 7.4659 5.41667 6.25033ZM2.5 15.8337C2.5 14.7286 2.93899 13.6688 3.72039 12.8874C4.50179 12.106 5.5616 11.667 6.66667 11.667H13.3333C14.4384 11.667 15.4982 12.106 16.2796 12.8874C17.061 13.6688 17.5 14.7286 17.5 15.8337V18.3337H2.5V15.8337ZM6.66667 13.3337C6.00363 13.3337 5.36774 13.5971 4.8989 14.0659C4.43006 14.5347 4.16667 15.1706 4.16667 15.8337V16.667H15.8333V15.8337C15.8333 15.1706 15.5699 14.5347 15.1011 14.0659C14.6323 13.5971 13.9964 13.3337 13.3333 13.3337H6.66667Z" fill="#5D6369"/>
</svg>
