<svg width="32" height="32" viewBox="0 0 32 32" fill="none" xmlns="http://www.w3.org/2000/svg">
<path d="M18.7333 8.00033C20.0357 8.25442 21.2325 8.89134 22.1708 9.82958C23.1091 10.7678 23.746 11.9647 24 13.267M18.7333 2.66699C21.4391 2.96758 23.9621 4.17922 25.8884 6.10301C27.8145 8.02678 29.0295 10.5483 29.3333 13.2537M24.6667 28.0003C13.2528 28.0003 4 18.7475 4 7.33366C4 6.8187 4.01884 6.30814 4.05585 5.80263C4.09833 5.22249 4.11957 4.93242 4.2716 4.66837C4.39752 4.44967 4.62067 4.24227 4.84797 4.13266C5.12241 4.00033 5.44251 4.00033 6.08268 4.00033H9.83909C10.3774 4.00033 10.6466 4.00033 10.8774 4.08893C11.0812 4.16719 11.2627 4.29431 11.4059 4.45913C11.568 4.6457 11.66 4.89867 11.844 5.40461L13.3988 9.68039C13.6128 10.269 13.7199 10.5634 13.7017 10.8426C13.6857 11.0888 13.6016 11.3258 13.4589 11.5271C13.2971 11.7554 13.0286 11.9165 12.4915 12.2388L10.6667 13.3337C12.2692 16.8655 15.1335 19.7335 18.6667 21.3337L19.7616 19.5089C20.0839 18.9717 20.2449 18.7031 20.4732 18.5414C20.6745 18.3987 20.9115 18.3146 21.1577 18.2986C21.4369 18.2805 21.7313 18.3875 22.32 18.6015L26.5957 20.1563C27.1016 20.3403 27.3547 20.4323 27.5412 20.5945C27.706 20.7377 27.8332 20.9191 27.9113 21.123C28 21.3537 28 21.6229 28 22.1613V25.9177C28 26.5578 28 26.8779 27.8676 27.1523C27.758 27.3797 27.5507 27.6029 27.332 27.7287C27.0679 27.8807 26.7779 27.9019 26.1977 27.9445C25.6921 27.9815 25.1816 28.0003 24.6667 28.0003Z" stroke="url(#paint0_linear_54_27163)" stroke-width="2" stroke-linecap="round" stroke-linejoin="round"/>
<defs>
<linearGradient id="paint0_linear_54_27163" x1="4" y1="15.3337" x2="29.3333" y2="15.3337" gradientUnits="userSpaceOnUse">
<stop stop-color="#3B32F6"/>
<stop offset="1" stop-color="#49A6FF"/>
</linearGradient>
</defs>
</svg>
