<svg width="18" height="18" viewBox="0 0 18 18" fill="none" xmlns="http://www.w3.org/2000/svg">
<g clip-path="url(#clip0_54_27128)">
<path d="M9.0002 17.1C13.5669 17.1 17.2689 13.398 17.2689 8.83125C17.2689 4.26455 13.5669 0.5625 9.0002 0.5625C4.43349 0.5625 0.731445 4.26455 0.731445 8.83125C0.731445 13.398 4.43349 17.1 9.0002 17.1Z" stroke="#5D6369" stroke-width="1.08" stroke-linecap="round" stroke-linejoin="round"/>
<path d="M7.00777 16.8586C5.8891 15.218 5.1416 12.2369 5.1416 8.83162C5.1416 5.42637 5.8891 2.44521 7.00777 0.804688" stroke="#5D6369" stroke-width="1.08" stroke-linecap="round" stroke-linejoin="round"/>
<path d="M0.731445 8.83105H17.2689" stroke="#5D6369" stroke-width="1.08" stroke-linecap="round" stroke-linejoin="round"/>
<path d="M2.00391 13.2412H15.9954" stroke="#5D6369" stroke-width="1.08" stroke-linecap="round" stroke-linejoin="round"/>
<path d="M2.00391 4.4209H15.9954" stroke="#5D6369" stroke-width="1.08" stroke-linecap="round" stroke-linejoin="round"/>
<path d="M10.9932 0.804688C12.1118 2.44521 12.8593 5.42637 12.8593 8.83162C12.8593 12.2369 12.1118 15.218 10.9932 16.8586" stroke="#5D6369" stroke-width="1.08" stroke-linecap="round" stroke-linejoin="round"/>
</g>
<defs>
<clipPath id="clip0_54_27128">
<rect width="18" height="18" fill="white"/>
</clipPath>
</defs>
</svg>
