<svg width="32" height="32" viewBox="0 0 32 32" fill="none" xmlns="http://www.w3.org/2000/svg">
<path d="M5.33333 24.0003L12 16.0003M26.6667 24.0003L20 16.0003M4 10.667L13.6333 17.0891C14.4887 17.6594 14.9163 17.9446 15.3785 18.0553C15.7871 18.1533 16.2129 18.1533 16.6215 18.0553C17.0837 17.9446 17.5113 17.6594 18.3667 17.0891L28 10.667M8.26667 25.3337H23.7333C25.2268 25.3337 25.9736 25.3337 26.544 25.043C27.0457 24.7874 27.4537 24.3794 27.7093 23.8777C28 23.3073 28 22.5605 28 21.067V10.9337C28 9.44019 28 8.69345 27.7093 8.12302C27.4537 7.62125 27.0457 7.2133 26.544 6.95765C25.9736 6.66699 25.2268 6.66699 23.7333 6.66699H8.26667C6.7732 6.66699 6.02645 6.66699 5.45603 6.95765C4.95425 7.2133 4.54631 7.62125 4.29065 8.12302C4 8.69345 4 9.44018 4 10.9337V21.067C4 22.5605 4 23.3073 4.29065 23.8777C4.54631 24.3794 4.95425 24.7874 5.45603 25.043C6.02645 25.3337 6.77319 25.3337 8.26667 25.3337Z" stroke="url(#paint0_linear_54_27153)" stroke-width="2" stroke-linecap="round" stroke-linejoin="round"/>
<defs>
<linearGradient id="paint0_linear_54_27153" x1="4" y1="16.0003" x2="28" y2="16.0003" gradientUnits="userSpaceOnUse">
<stop stop-color="#3B32F6"/>
<stop offset="1" stop-color="#49A6FF"/>
</linearGradient>
</defs>
</svg>
