<svg width="20" height="20" viewBox="0 0 20 20" fill="none" xmlns="http://www.w3.org/2000/svg">
<path d="M3.33333 15.0003L7.5 10.0003M16.6667 15.0003L12.5 10.0003M2.5 6.66699L8.52083 10.6808C9.05542 11.0372 9.32267 11.2155 9.61158 11.2847C9.86692 11.3459 10.1331 11.3459 10.3884 11.2847C10.6773 11.2155 10.9446 11.0372 11.4792 10.6808L17.5 6.66699M5.16667 15.8337H14.8333C15.7667 15.8337 16.2335 15.8337 16.59 15.652C16.9036 15.4922 17.1586 15.2372 17.3183 14.9237C17.5 14.5672 17.5 14.1004 17.5 13.167V6.83366C17.5 5.90024 17.5 5.43353 17.3183 5.07701C17.1586 4.7634 16.9036 4.50843 16.59 4.34865C16.2335 4.16699 15.7667 4.16699 14.8333 4.16699H5.16667C4.23325 4.16699 3.76653 4.16699 3.41002 4.34865C3.09641 4.50843 2.84144 4.7634 2.68166 5.07701C2.5 5.43353 2.5 5.90023 2.5 6.83366V13.167C2.5 14.1004 2.5 14.5672 2.68166 14.9237C2.84144 15.2372 3.09641 15.4922 3.41002 15.652C3.76653 15.8337 4.23324 15.8337 5.16667 15.8337Z" stroke="#5D6369" stroke-width="1.4" stroke-linecap="round" stroke-linejoin="round"/>
</svg>
