<svg width="25" height="32" viewBox="0 0 25 32" fill="none" xmlns="http://www.w3.org/2000/svg">
<g clip-path="url(#clip0_54_27143)">
<path d="M17.5 12C17.5 14.7625 15.2625 17 12.5 17C9.7375 17 7.5 14.7625 7.5 12C7.5 9.2375 9.7375 7 12.5 7C15.2625 7 17.5 9.2375 17.5 12ZM12.5 10C11.3938 10 10.5 10.8938 10.5 12C10.5 13.1062 11.3938 14 12.5 14C13.6062 14 14.5 13.1062 14.5 12C14.5 10.8938 13.6062 10 12.5 10ZM24.5 12C24.5 17.4625 17.1875 27.1875 13.9812 31.2C13.2125 32.1562 11.7875 32.1562 11.0188 31.2C7.75625 27.1875 0.5 17.4625 0.5 12C0.5 5.3725 5.8725 0 12.5 0C19.125 0 24.5 5.3725 24.5 12ZM12.5 3C7.53125 3 3.5 7.03125 3.5 12C3.5 12.775 3.78062 13.975 4.45625 15.575C5.11125 17.125 6.04125 18.8375 7.1125 20.5688C8.8875 23.4563 10.95 26.1938 12.5 28.2313C14.05 26.1938 16.1125 23.4563 17.8875 20.5688C18.9563 18.8375 19.8875 17.125 20.5438 15.575C21.2188 13.975 21.5 12.775 21.5 12C21.5 7.03125 17.4688 3 12.5 3Z" fill="url(#paint0_linear_54_27143)"/>
</g>
<defs>
<linearGradient id="paint0_linear_54_27143" x1="0.5" y1="15.9586" x2="24.5" y2="15.9586" gradientUnits="userSpaceOnUse">
<stop stop-color="#3B32F6"/>
<stop offset="1" stop-color="#49A6FF"/>
</linearGradient>
<clipPath id="clip0_54_27143">
<rect width="24" height="32" fill="white" transform="translate(0.5)"/>
</clipPath>
</defs>
</svg>
