<svg width="33" height="32" viewBox="0 0 33 32" fill="none" xmlns="http://www.w3.org/2000/svg">
<path d="M5.83333 24.0003L12.5 16.0003M27.1667 24.0003L20.5 16.0003M4.5 10.667L14.1333 17.0891C14.9887 17.6594 15.4163 17.9446 15.8785 18.0553C16.2871 18.1533 16.7129 18.1533 17.1215 18.0553C17.5837 17.9446 18.0113 17.6594 18.8667 17.0891L28.5 10.667M8.76667 25.3337H24.2333C25.7268 25.3337 26.4736 25.3337 27.044 25.043C27.5457 24.7874 27.9537 24.3794 28.2093 23.8777C28.5 23.3073 28.5 22.5605 28.5 21.067V10.9337C28.5 9.44019 28.5 8.69345 28.2093 8.12302C27.9537 7.62125 27.5457 7.2133 27.044 6.95765C26.4736 6.66699 25.7268 6.66699 24.2333 6.66699H8.76667C7.2732 6.66699 6.52645 6.66699 5.95603 6.95765C5.45425 7.2133 5.04631 7.62125 4.79065 8.12302C4.5 8.69345 4.5 9.44018 4.5 10.9337V21.067C4.5 22.5605 4.5 23.3073 4.79065 23.8777C5.04631 24.3794 5.45425 24.7874 5.95603 25.043C6.52645 25.3337 7.27319 25.3337 8.76667 25.3337Z" stroke="white" stroke-width="2" stroke-linecap="round" stroke-linejoin="round"/>
</svg>
