<svg width="32" height="32" viewBox="0 0 32 32" fill="none" xmlns="http://www.w3.org/2000/svg">
<path d="M18.7333 8.00008C20.0357 8.25417 21.2325 8.8911 22.1708 9.82934C23.1091 10.7676 23.746 11.9644 24 13.2667M18.7333 2.66675C21.4391 2.96733 23.9621 4.17897 25.8884 6.10276C27.8145 8.02654 29.0295 10.5481 29.3333 13.2534M24.6667 28.0001C13.2528 28.0001 4 18.7473 4 7.33341C4 6.81845 4.01884 6.30789 4.05585 5.80239C4.09833 5.22224 4.11957 4.93217 4.2716 4.66812C4.39752 4.44943 4.62067 4.24203 4.84797 4.13241C5.12241 4.00008 5.44251 4.00008 6.08268 4.00008H9.83909C10.3774 4.00008 10.6466 4.00008 10.8774 4.08868C11.0812 4.16695 11.2627 4.29407 11.4059 4.45888C11.568 4.64545 11.66 4.89843 11.844 5.40436L13.3988 9.68015C13.6128 10.2688 13.7199 10.5631 13.7017 10.8423C13.6857 11.0886 13.6016 11.3255 13.4589 11.5268C13.2971 11.7551 13.0286 11.9163 12.4915 12.2385L10.6667 13.3334C12.2692 16.8653 15.1335 19.7333 18.6667 21.3334L19.7616 19.5086C20.0839 18.9714 20.2449 18.7029 20.4732 18.5411C20.6745 18.3985 20.9115 18.3143 21.1577 18.2983C21.4369 18.2802 21.7313 18.3873 22.32 18.6013L26.5957 20.1561C27.1016 20.3401 27.3547 20.4321 27.5412 20.5942C27.706 20.7374 27.8332 20.9189 27.9113 21.1227C28 21.3534 28 21.6226 28 22.161V25.9174C28 26.5575 28 26.8777 27.8676 27.1521C27.758 27.3794 27.5507 27.6026 27.332 27.7285C27.0679 27.8805 26.7779 27.9017 26.1977 27.9442C25.6921 27.9813 25.1816 28.0001 24.6667 28.0001Z" stroke="white" stroke-width="2" stroke-linecap="round" stroke-linejoin="round"/>
</svg>
