<svg width="20" height="21" viewBox="0 0 20 21" fill="none" xmlns="http://www.w3.org/2000/svg">
<g clip-path="url(#clip0_571_12503)">
<path d="M5.673 0.822266C5.85865 0.822266 6.0367 0.896015 6.16797 1.02729C6.29925 1.15857 6.373 1.33661 6.373 1.52227V2.83127H13.89V1.53127C13.89 1.34561 13.9637 1.16757 14.095 1.03629C14.2263 0.905015 14.4043 0.831266 14.59 0.831266C14.7757 0.831266 14.9537 0.905015 15.085 1.03629C15.2162 1.16757 15.29 1.34561 15.29 1.53127V2.83127H18C18.5303 2.83127 19.0388 3.04184 19.4139 3.4167C19.7889 3.79155 19.9997 4.30001 20 4.83027V18.8233C19.9997 19.3535 19.7889 19.862 19.4139 20.2368C19.0388 20.6117 18.5303 20.8223 18 20.8223H2C1.46974 20.8223 0.961184 20.6117 0.58614 20.2368C0.211096 19.862 0.00026513 19.3535 0 18.8233L0 4.83027C0.00026513 4.30001 0.211096 3.79155 0.58614 3.4167C0.961184 3.04184 1.46974 2.83127 2 2.83127H4.973V1.52127C4.97327 1.33579 5.04713 1.158 5.17838 1.02694C5.30963 0.895878 5.48752 0.822265 5.673 0.822266ZM1.4 8.56427V18.8233C1.4 18.9021 1.41552 18.9801 1.44567 19.0529C1.47583 19.1257 1.52002 19.1918 1.57574 19.2475C1.63145 19.3032 1.69759 19.3474 1.77039 19.3776C1.84319 19.4077 1.92121 19.4233 2 19.4233H18C18.0788 19.4233 18.1568 19.4077 18.2296 19.3776C18.3024 19.3474 18.3685 19.3032 18.4243 19.2475C18.48 19.1918 18.5242 19.1257 18.5543 19.0529C18.5845 18.9801 18.6 18.9021 18.6 18.8233V8.57827L1.4 8.56427ZM6.667 15.4413V17.1073H5V15.4413H6.667ZM10.833 15.4413V17.1073H9.167V15.4413H10.833ZM15 15.4413V17.1073H13.333V15.4413H15ZM6.667 11.4643V13.1303H5V11.4643H6.667ZM10.833 11.4643V13.1303H9.167V11.4643H10.833ZM15 11.4643V13.1303H13.333V11.4643H15ZM4.973 4.23027H2C1.92121 4.23027 1.84319 4.24578 1.77039 4.27594C1.69759 4.30609 1.63145 4.35029 1.57574 4.406C1.52002 4.46172 1.47583 4.52786 1.44567 4.60066C1.41552 4.67345 1.4 4.75147 1.4 4.83027V7.16527L18.6 7.17927V4.83027C18.6 4.75147 18.5845 4.67345 18.5543 4.60066C18.5242 4.52786 18.48 4.46172 18.4243 4.406C18.3685 4.35029 18.3024 4.30609 18.2296 4.27594C18.1568 4.24578 18.0788 4.23027 18 4.23027H15.29V5.15927C15.29 5.34492 15.2162 5.52296 15.085 5.65424C14.9537 5.78552 14.7757 5.85927 14.59 5.85927C14.4043 5.85927 14.2263 5.78552 14.095 5.65424C13.9637 5.52296 13.89 5.34492 13.89 5.15927V4.23027H6.373V5.15027C6.373 5.33592 6.29925 5.51396 6.16797 5.64524C6.0367 5.77652 5.85865 5.85027 5.673 5.85027C5.48735 5.85027 5.3093 5.77652 5.17803 5.64524C5.04675 5.51396 4.973 5.33592 4.973 5.15027V4.23027Z" fill="#5D6369"/>
</g>
<defs>
<clipPath id="clip0_571_12503">
<rect width="20" height="20" fill="white" transform="translate(0 0.822266)"/>
</clipPath>
</defs>
</svg>
