<svg width="34" height="34" viewBox="0 0 34 34" fill="none" xmlns="http://www.w3.org/2000/svg">
<path d="M20.0064 3.43532L19.0671 2.13934C18.9363 1.95888 18.871 1.86867 18.7713 1.82209C18.6717 1.77552 18.566 1.78286 18.3547 1.79755C15.9468 1.96484 13.7526 2.90898 12.021 4.38118C11.9296 4.45893 11.9856 4.60044 12.1054 4.60749C13.4947 4.68928 14.234 5.46111 15.0438 6.3172C16.2954 7.64047 17.2796 7.53106 17.741 7.28716C17.9295 7.1875 17.9642 7.11698 17.9761 7.09267L17.977 7.09091C18.0147 7.01485 18.0304 6.93355 18.0865 6.62571C18.1334 6.36844 18.2148 5.92679 18.497 5.50038C18.7955 5.04944 19.2411 4.72069 19.8286 4.48776C20.0735 4.39066 20.1489 4.25472 20.1761 4.12654C20.2099 3.96681 20.1826 3.71263 20.0064 3.43532Z" fill="white"/>
<path d="M21.3513 23.1685C21.5141 23.3048 21.5954 23.3731 21.6983 23.3952C21.8011 23.4173 21.8981 23.3901 22.0924 23.3358C25.5896 22.3562 28.3814 19.6875 29.5337 16.2644C29.6849 15.8151 29.7605 15.5906 29.6333 15.4135C29.5061 15.2366 29.256 15.2366 28.7559 15.2366H28.3346C27.6266 15.2366 27.239 15.4978 26.6705 15.8892L26.6502 15.9031C26.0623 16.3079 25.2038 16.899 23.8762 16.6334C22.1268 16.2833 21.2903 16.3764 20.9296 16.5432C20.7951 16.6054 20.7412 16.6709 20.703 16.7477C20.6525 16.8497 20.6019 17.036 20.6019 17.3643L20.602 17.4878C20.6023 18.212 20.6026 18.7593 20.4784 19.2583C20.349 19.7777 20.0919 20.2193 19.7754 20.763L19.7213 20.8558C19.5159 21.2094 19.4766 21.4052 19.4807 21.4963C19.4822 21.527 19.4883 21.5532 19.5095 21.5898C19.5342 21.6318 19.5956 21.7141 19.7438 21.8241C19.7608 21.8365 19.7774 21.8496 19.7934 21.8632L21.3513 23.1685Z" fill="white"/>
<path opacity="0.4" d="M22.0158 2.71253C21.8775 2.41146 21.8084 2.26093 21.869 2.19187C21.9295 2.12282 22.0747 2.16761 22.3652 2.25723C26.8469 3.64046 30.1038 7.81777 30.1038 12.7562C30.1038 12.9537 29.9414 13.1106 29.7439 13.1106H28.333C26.954 13.1106 26.0992 13.7 25.5123 14.1047L25.4644 14.1377C24.896 14.5289 24.6964 14.6298 24.2914 14.5486C22.4992 14.19 21.0632 14.1386 20.0366 14.6133C19.4776 14.8717 19.0592 15.2769 18.7984 15.8016C18.5502 16.3014 18.4753 16.8477 18.4753 17.3645C18.4753 18.2679 18.4676 18.5321 18.4148 18.7443C18.3673 18.935 18.2781 19.1069 17.8828 19.7872C17.6091 20.2579 17.3249 20.8866 17.3563 21.5907C17.3903 22.3597 17.7859 23.0104 18.4496 23.512C18.5362 23.5845 18.4814 23.7235 18.3687 23.7159C12.6577 23.3273 8.14551 18.569 8.14551 12.7562C8.14551 10.8053 8.65379 8.9731 9.5451 7.38507C9.71686 7.07905 9.80274 6.92605 9.96852 6.82898C10.1343 6.73193 10.3251 6.73193 10.7067 6.73193H12.0074C12.4529 6.76339 12.6793 6.91241 13.4988 7.77879C15.2211 9.59957 17.2108 9.97132 18.732 9.16721C19.2822 8.87637 19.652 8.49402 19.8793 8.03515C20.06 7.6706 20.1264 7.28804 20.1638 7.07275L20.1754 7.00703C20.2202 6.76128 20.2464 6.70578 20.2672 6.67433C20.274 6.66379 20.3313 6.57489 20.6096 6.46452C21.5021 6.11069 22.0747 5.40761 22.253 4.56847C22.389 3.92813 22.2807 3.2894 22.0158 2.71253Z" fill="white"/>
<path fill-rule="evenodd" clip-rule="evenodd" d="M10.2244 1.84588C10.7698 2.40686 10.7572 3.30376 10.1962 3.84915C7.83512 6.14466 6.37533 9.33664 6.37533 12.867C6.37533 19.833 12.0726 25.5001 19.1253 25.5001C22.6045 25.5001 25.7541 24.1212 28.0544 21.8847C28.6154 21.3393 29.5123 21.3521 30.0577 21.9129C30.6032 22.4739 30.5906 23.3708 30.0296 23.9162C27.2193 26.6484 23.3682 28.3334 19.1253 28.3334V29.7501H20.542C21.3244 29.7501 21.9587 30.3843 21.9587 31.1667C21.9587 31.9492 21.3244 32.5834 20.542 32.5834H14.8753C14.0929 32.5834 13.4587 31.9492 13.4587 31.1667C13.4587 30.3843 14.0929 29.7501 14.8753 29.7501H16.292V28.0783C9.04557 26.7565 3.54199 20.4573 3.54199 12.867C3.54199 8.53676 5.33667 4.62203 8.22113 1.81768C8.7821 1.27228 9.67901 1.28491 10.2244 1.84588Z" fill="white"/>
</svg>
