<svg width="32" height="32" viewBox="0 0 32 32" fill="none" xmlns="http://www.w3.org/2000/svg">
<path d="M17.5321 3.29911C17.7752 2.90601 18.2042 2.66675 18.6664 2.66675C23.8256 2.66675 27.9997 6.84084 27.9997 12.0001C27.9997 12.7365 27.4028 13.3334 26.6664 13.3334C25.93 13.3334 25.333 12.7365 25.333 12.0001C25.333 9.43941 23.8952 7.21951 21.7814 6.10247L20.7116 7.17237C20.5089 7.37504 20.278 7.56685 19.9941 7.60661C19.4426 7.68388 18.8794 7.40771 18.6166 6.88208L17.4738 4.59636C17.2672 4.18305 17.2891 3.6922 17.5321 3.29911Z" fill="white"/>
<path d="M5.33333 18.6667C6.06971 18.6667 6.66667 19.2637 6.66667 20.0001C6.66667 22.5607 8.10457 24.7806 10.2183 25.8977L11.2882 24.8278C11.4909 24.6251 11.7217 24.4333 12.0056 24.3935C12.5571 24.3163 13.1202 24.5925 13.3831 25.1181L14.5259 27.4038C14.7325 27.8171 14.7105 28.3079 14.4676 28.701C14.2245 29.0941 13.7955 29.3334 13.3333 29.3334C8.17409 29.3334 4 25.1593 4 20.0001C4 19.2637 4.59696 18.6667 5.33333 18.6667Z" fill="white"/>
<g opacity="0.4">
<path d="M19.2423 24.6582C21.7511 23.3362 24.9156 23.3362 27.4243 24.6582C27.4872 24.6913 27.5702 24.7326 27.6679 24.7812C28.1348 25.0136 28.9384 25.4133 29.4866 25.8881C29.8224 26.179 30.242 26.6428 30.3207 27.2793C30.4088 27.9921 30.0399 28.5876 29.513 29.0318C28.6776 29.7361 27.6336 30.3334 26.2728 30.3334H20.3939C19.033 30.3334 17.989 29.7361 17.1538 29.0318C16.6268 28.5876 16.2579 27.9921 16.346 27.2793C16.4246 26.6428 16.8443 26.179 17.1802 25.8881C17.7283 25.4133 18.5318 25.0136 18.9988 24.7812C19.0966 24.7326 19.1795 24.6913 19.2423 24.6582Z" fill="white"/>
<path d="M19.333 19C19.333 16.8003 21.1145 15 23.333 15C25.5515 15 27.333 16.8003 27.333 19C27.333 21.1997 25.5515 23 23.333 23C21.1145 23 19.333 21.1997 19.333 19Z" fill="white"/>
</g>
<g opacity="0.4">
<path d="M4.57638 11.325C7.08513 10.003 10.2496 10.003 12.7584 11.325C12.8212 11.3581 12.9042 11.3994 13.0019 11.448C13.4689 11.6803 14.2725 12.08 14.8206 12.5548C15.1565 12.8458 15.5761 13.3094 15.6547 13.946C15.7429 14.6588 15.3739 15.2543 14.847 15.6986C14.0117 16.4028 12.9677 17.0002 11.6068 17.0002H5.72796C4.36705 17.0002 3.32305 16.4028 2.4878 15.6986C1.96082 15.2543 1.59196 14.6588 1.68 13.946C1.75864 13.3094 2.17828 12.8458 2.51418 12.5548C3.0623 12.08 3.86585 11.6803 4.33288 11.448C4.43057 11.3994 4.51356 11.3581 4.57638 11.325Z" fill="white"/>
<path d="M4.66699 5.66675C4.66699 3.46704 6.44841 1.66675 8.66699 1.66675C10.8856 1.66675 12.667 3.46704 12.667 5.66675C12.667 7.86646 10.8856 9.66675 8.66699 9.66675C6.44841 9.66675 4.66699 7.86646 4.66699 5.66675Z" fill="white"/>
</g>
</svg>
