<svg width="34" height="34" viewBox="0 0 34 34" fill="none" xmlns="http://www.w3.org/2000/svg">
<path opacity="0.4" d="M17.0814 2.47925C20.1849 2.47923 22.6225 2.47922 24.5257 2.73508C26.4758 2.9973 28.0233 3.5456 29.239 4.76137C30.4548 5.97715 31.0031 7.52452 31.2653 9.47478C31.5212 11.378 31.5212 13.8156 31.5212 16.919V17.0811C31.5212 20.1846 31.5212 22.6223 31.2653 24.5254C31.0031 26.4756 30.4548 28.023 29.239 29.2388C28.0233 30.4546 26.4758 31.0028 24.5257 31.2651C22.6225 31.5209 20.1849 31.5209 17.0814 31.5209H16.9193C13.8159 31.5209 11.3782 31.5209 9.47502 31.2651C7.52477 31.0028 5.9774 30.4546 4.76161 29.2388C3.54585 28.023 2.99754 26.4756 2.73533 24.5254C2.47946 22.6223 2.47948 20.1846 2.47949 17.0811V16.919C2.47948 13.8156 2.47946 11.378 2.73533 9.47478C2.99754 7.52452 3.54585 5.97715 4.76161 4.76137C5.9774 3.5456 7.52477 2.9973 9.47502 2.73508C11.3782 2.47922 13.8158 2.47923 16.9193 2.47925H17.0814Z" fill="white"/>
<path fill-rule="evenodd" clip-rule="evenodd" d="M24.783 11.9504C25.2246 12.3368 25.2694 13.0081 24.8829 13.4497L20.1104 18.9039C20.6034 19.5565 20.8958 20.3691 20.8958 21.25C20.8958 23.4016 19.1516 25.1458 17 25.1458C14.8484 25.1458 13.1042 23.4016 13.1042 21.25C13.1042 19.0984 14.8484 17.3542 17 17.3542C17.4981 17.3542 17.9742 17.4477 18.412 17.6179L23.2838 12.0504C23.6701 11.6087 24.3415 11.564 24.783 11.9504ZM9.5625 17C9.5625 12.8924 12.8924 9.5625 17 9.5625C18.3565 9.5625 19.6251 9.92466 20.718 10.5569C21.2259 10.8507 21.8759 10.6771 22.1697 10.1692C22.4635 9.66123 22.29 9.01127 21.782 8.71744C20.3744 7.90319 18.74 7.4375 17 7.4375C11.7188 7.4375 7.4375 11.7188 7.4375 17C7.4375 17.5868 7.9132 18.0625 8.5 18.0625C9.0868 18.0625 9.5625 17.5868 9.5625 17Z" fill="white"/>
</svg>
