<svg width="20" height="20" viewBox="0 0 20 20" fill="none" xmlns="http://www.w3.org/2000/svg">
<circle cx="10" cy="10" r="10" fill="white" fill-opacity="0.2"/>
<path d="M15.8984 12.9794C15.5435 14.1113 14.4389 14.9199 13.1374 14.9819C12.5421 15.0102 11.9441 14.9966 11.3473 14.9974C9.96537 14.9991 8.58339 15.0014 7.20145 14.9969C5.69332 14.992 4.49957 14.2059 4.11072 12.9709C3.76533 11.874 4.24716 10.6753 5.28943 10.0167C5.37678 9.9615 5.45057 9.87052 5.49368 9.78195C5.73841 9.27914 6.07434 8.84081 6.60162 8.54278C6.75682 8.45505 6.93906 8.3993 7.11665 8.35173C7.18256 8.33407 7.30101 8.36096 7.34001 8.40573C7.37838 8.44978 7.37811 8.56259 7.3397 8.60986C7.19275 8.79068 7.03983 8.97254 6.85822 9.1249C6.67407 9.27939 6.58181 9.44431 6.58829 9.67048C6.59968 10.0682 6.59255 10.4663 6.59109 10.8643C6.59036 11.0616 6.64961 11.2327 6.86054 11.328C7.06843 11.4219 7.25967 11.3772 7.44196 11.2587C7.68754 11.099 7.9387 10.9461 8.16217 10.8061C8.34712 10.9671 8.52355 11.1158 8.69155 11.2717C8.72034 11.2984 8.72317 11.3561 8.72104 11.3988C8.70744 11.6712 8.8225 11.8667 9.14259 11.9496C8.69487 12.4717 8.73698 13.0296 8.9976 13.58C9.15949 13.9219 9.37825 14.2463 9.606 14.5586C9.79299 14.8151 10.1868 14.8261 10.3878 14.5892C10.7612 14.1493 11.0563 13.6714 11.175 13.1211C11.2659 12.6995 11.1984 12.3075 10.8832 11.9525C11.2136 11.8628 11.3252 11.6594 11.3053 11.381C11.3026 11.3443 11.3098 11.2951 11.3354 11.2707C11.4968 11.117 11.6647 10.9687 11.8489 10.8019C12.0682 10.9388 12.3178 11.0895 12.5609 11.2481C12.7468 11.3693 12.9421 11.4316 13.1571 11.3285C13.3682 11.2272 13.4315 11.0518 13.4293 10.8465C13.4247 10.4312 13.4246 10.0159 13.4294 9.60069C13.4315 9.42051 13.3756 9.25837 13.2044 9.16506C12.7737 8.93033 12.5951 8.60958 12.6875 8.16151C12.7135 8.03539 12.6744 7.89867 12.6637 7.74634C12.747 7.79006 12.8206 7.82391 12.8886 7.86514C13.5967 8.29466 14.0366 8.88278 14.2172 9.62828C14.2334 9.69542 14.2946 9.77568 14.3608 9.80834C15.6609 10.4497 16.2539 11.6576 15.8984 12.9794Z" fill="white"/>
<path d="M8.58709 10.2129C8.54899 10.1521 8.51917 10.1019 8.47133 10.0215C8.73083 10.0215 8.96546 10.0215 9.2001 10.0214C9.26494 10.0214 9.34162 10.0404 9.3918 10.0161C9.46505 9.98076 9.51925 9.91423 9.58157 9.86099C9.51744 9.81022 9.45646 9.71993 9.38863 9.71565C9.11764 9.69859 8.84452 9.70818 8.5722 9.70807C8.26661 9.70795 8.2489 9.69345 8.2105 9.396C8.74947 9.396 9.28658 9.39604 9.8237 9.39596C9.88853 9.39595 9.96583 9.41501 10.0152 9.3903C10.0877 9.35409 10.1777 9.29333 10.1925 9.23043C10.2169 9.12682 10.1181 9.08305 10.0064 9.08279C9.68867 9.08204 9.37095 9.08223 9.05324 9.08214C8.77442 9.08206 8.49534 9.08776 8.21703 9.07718C8.16323 9.07513 8.07526 9.01605 8.06585 8.97254C7.89247 8.17103 8.02337 7.4057 8.4354 6.65604C9.48253 7.10679 10.5307 7.11193 11.5825 6.65576C11.924 7.26723 12.0701 7.90221 12.0156 8.57077C11.9545 9.32016 11.6492 9.99048 11.145 10.5892C11.1005 10.6421 11.002 10.6868 10.9277 10.6877C10.3185 10.6956 9.70893 10.6961 9.09969 10.6874C9.01986 10.6863 8.91995 10.6363 8.86653 10.5808C8.76224 10.4723 8.68426 10.3438 8.58709 10.2129ZM10.7853 7.97806C10.7056 7.5432 10.2952 7.27897 9.83724 7.36762C9.40947 7.45042 9.14603 7.85089 9.26706 8.23436C9.36834 8.55526 9.73178 8.76942 10.1006 8.72554C10.5135 8.67642 10.776 8.40197 10.7853 7.97806Z" fill="white"/>
<path d="M10.8162 6.59745C10.0422 6.77075 9.31447 6.70192 8.60645 6.38307C8.96969 5.8381 9.44547 5.39735 10.0068 5C10.5707 5.37584 11.0365 5.82905 11.4271 6.39289C11.2208 6.46275 11.0263 6.52864 10.8162 6.59745Z" fill="white"/>
<path d="M10.4348 13.3155C10.3045 13.5599 10.1778 13.791 10.0266 14.0668C9.69968 13.594 9.4076 13.1654 9.50108 12.626C9.5429 12.3847 9.75438 12.2168 9.99424 12.2091C10.2489 12.2008 10.448 12.3545 10.5195 12.6104C10.5864 12.8502 10.523 13.077 10.4348 13.3155Z" fill="white"/>
<path d="M12.7587 9.79717C12.7587 10.0766 12.7587 10.34 12.7587 10.6464C12.4634 10.4617 12.2001 10.3007 11.9441 10.1308C11.9196 10.1146 11.9279 10.0386 11.9443 9.99781C12.0446 9.74917 12.1516 9.50269 12.2666 9.23145C12.4215 9.42145 12.775 9.45891 12.7587 9.79717Z" fill="white"/>
<path d="M7.81556 9.37853C7.91436 9.62944 8.00883 9.86708 8.10793 10.1164C7.84211 10.2829 7.57318 10.4515 7.26793 10.6427C7.26793 10.2886 7.26232 9.96407 7.27415 9.64008C7.27587 9.59291 7.35678 9.544 7.4083 9.50312C7.51828 9.41585 7.63301 9.33331 7.75761 9.23999C7.78083 9.29422 7.79603 9.32974 7.81556 9.37853Z" fill="white"/>
<path d="M10.276 10.9993C10.3981 10.9993 10.5009 10.9993 10.6183 10.9993C10.6183 11.1131 10.6183 11.2191 10.6183 11.3393C10.2289 11.3393 9.8319 11.3393 9.41895 11.3393C9.41895 11.2327 9.41895 11.1225 9.41895 10.9993C9.70246 10.9993 9.97963 10.9993 10.276 10.9993Z" fill="white"/>
<path d="M10.7857 7.99314C10.7757 8.40198 10.5133 8.67643 10.1004 8.72555C9.73153 8.76943 9.36808 8.55528 9.2668 8.23438C9.14577 7.8509 9.40922 7.45043 9.83698 7.36763C10.295 7.27899 10.7053 7.54322 10.7857 7.99314ZM10.4302 7.92296C10.3245 7.72959 10.1714 7.63096 9.98457 7.64851C9.80238 7.66562 9.67063 7.74924 9.60666 7.90705C9.54176 8.06719 9.593 8.20444 9.72461 8.31627C9.86077 8.43197 10.0254 8.44483 10.1943 8.38028C10.3753 8.31107 10.4486 8.17411 10.4302 7.92296Z" fill="white"/>
<path d="M10.4333 7.93722C10.4491 8.17432 10.3758 8.31128 10.1948 8.38049C10.0259 8.44504 9.86125 8.43218 9.72509 8.31649C9.59348 8.20465 9.54223 8.0674 9.60714 7.90726C9.67111 7.74945 9.80285 7.66583 9.98504 7.64872C10.1719 7.63117 10.325 7.7298 10.4333 7.93722Z" fill="white"/>
</svg>
