<svg width="36" height="36" viewBox="0 0 36 36" fill="none" xmlns="http://www.w3.org/2000/svg">
<path opacity="0.4" d="M1.875 18C1.875 26.9056 9.09441 34.125 18 34.125C26.9056 34.125 34.125 26.9056 34.125 18C34.125 9.09441 26.9056 1.875 18 1.875C9.09441 1.875 1.875 9.09441 1.875 18Z" fill="#084FEE"/>
<path d="M7.5 18C7.5 12.201 12.201 7.5 18 7.5C19.6424 7.5 21.2007 7.87815 22.5888 8.55351C23.0472 8.77602 23.669 9.07789 24.0854 9.40903C24.6363 9.84727 25.014 10.4232 25.1439 11.1969C25.288 12.0562 25.0269 12.7633 24.6264 13.3476C24.3038 13.8185 23.8284 14.2933 23.3739 14.7475L19.0606 19.0606C18.4749 19.6464 17.5251 19.6464 16.9394 19.0606C16.3536 18.4749 16.3536 17.5251 16.9394 16.9394L21.1819 12.6967C21.2623 12.6163 21.3655 12.5084 21.4749 12.392C21.8056 12.04 21.7107 11.4625 21.2763 11.2512C20.2881 10.7704 19.1778 10.5 18 10.5C13.8579 10.5 10.5 13.8579 10.5 18C10.5 22.1421 13.8579 25.5 18 25.5C22.1421 25.5 25.5 22.1421 25.5 18C25.5 17.1716 26.1716 16.5 27 16.5C27.8284 16.5 28.5 17.1716 28.5 18C28.5 23.799 23.799 28.5 18 28.5C12.201 28.5 7.5 23.799 7.5 18Z" fill="white"/>
</svg>
