<svg width="21" height="20" viewBox="0 0 21 20" fill="none" xmlns="http://www.w3.org/2000/svg">
<path d="M3.83333 14.9998L8 9.99984M17.1667 14.9998L13 9.99984M3 6.6665L9.02083 10.6803C9.55542 11.0368 9.82267 11.215 10.1116 11.2842C10.3669 11.3454 10.6331 11.3454 10.8884 11.2842C11.1773 11.215 11.4446 11.0368 11.9792 10.6803L18 6.6665M5.66667 15.8332H15.3333C16.2667 15.8332 16.7335 15.8332 17.09 15.6515C17.4036 15.4918 17.6586 15.2368 17.8183 14.9232C18 14.5667 18 14.0999 18 13.1665V6.83317C18 5.89975 18 5.43304 17.8183 5.07652C17.6586 4.76291 17.4036 4.50795 17.09 4.34816C16.7335 4.1665 16.2667 4.1665 15.3333 4.1665H5.66667C4.73325 4.1665 4.26653 4.1665 3.91002 4.34816C3.59641 4.50795 3.34144 4.76291 3.18166 5.07652C3 5.43304 3 5.89975 3 6.83317V13.1665C3 14.0999 3 14.5667 3.18166 14.9232C3.34144 15.2368 3.59641 15.4918 3.91002 15.6515C4.26653 15.8332 4.73324 15.8332 5.66667 15.8332Z" stroke="#5D6369" stroke-width="1.2" stroke-linecap="round" stroke-linejoin="round"/>
</svg>
