<svg width="40" height="40" viewBox="0 0 40 40" fill="none" xmlns="http://www.w3.org/2000/svg">
<path d="M28.787 3.71303C26.5889 3.41751 23.7603 3.41649 20.0957 3.4165H19.905C16.2404 3.41649 13.4118 3.41751 11.2137 3.71303C8.97455 4.01408 7.27728 4.63304 5.9554 5.95491C5.9554 5.95491 5.9554 5.95491 5.95539 5.95491M28.787 3.71303L3.21798 28.8532C2.91696 26.6142 2.91698 23.7464 2.91699 20.0953V20.0952V19.9045V19.9044C2.91698 16.2533 2.91696 13.3855 3.21798 11.1465C3.52646 8.85212 4.17153 7.03169 5.60184 5.60135L5.95539 5.95491M28.787 3.71303C31.0261 4.01408 32.7234 4.63304 34.0453 5.95491C35.3672 7.27679 35.9861 8.97404 36.2871 11.2132C36.5826 13.4113 36.5837 16.2399 36.5837 19.9045V20.0952C36.5837 23.7598 36.5826 26.5884 36.2871 28.7866C35.9861 31.0256 35.3672 32.7229 34.0453 34.0448C32.7234 35.3667 31.0261 35.9856 28.787 36.2866C26.5889 36.5821 23.7603 36.5832 20.0957 36.5832H19.905C16.2405 36.5832 13.4118 36.5821 11.2136 36.2866C8.97453 35.9856 7.27728 35.3667 5.9554 34.0448C4.63353 32.7229 4.01456 31.0256 3.71352 28.7865C3.418 26.5884 3.41698 23.7598 3.41699 20.0952V19.9045C3.41698 16.2399 3.418 13.4113 3.71352 11.2132C4.01456 8.97406 4.63353 7.2768 5.95539 5.95491M28.787 3.71303L5.95539 5.95491" fill="url(#paint0_linear_392_43103)" stroke="url(#paint1_linear_392_43103)"/>
<path fill-rule="evenodd" clip-rule="evenodd" d="M29.1565 14.0593C29.676 14.5139 29.7287 15.3036 29.274 15.8232L23.6593 22.2398C24.2393 23.0077 24.5833 23.9637 24.5833 25C24.5833 27.5313 22.5313 29.5833 20 29.5833C17.4687 29.5833 15.4167 27.5313 15.4167 25C15.4167 22.4687 17.4687 20.4167 20 20.4167C20.586 20.4167 21.1462 20.5267 21.6612 20.727L27.3927 14.1769C27.8472 13.6573 28.637 13.6047 29.1565 14.0593ZM11.25 20C11.25 15.1675 15.1675 11.25 20 11.25C21.5958 11.25 23.0883 11.6761 24.3742 12.4198C24.9717 12.7655 25.7363 12.5613 26.082 11.9637C26.4277 11.3661 26.2235 10.6015 25.6258 10.2558C23.9698 9.29787 22.047 8.75 20 8.75C13.7868 8.75 8.75 13.7868 8.75 20C8.75 20.6903 9.30965 21.25 10 21.25C10.6903 21.25 11.25 20.6903 11.25 20Z" fill="white"/>
<defs>
<linearGradient id="paint0_linear_392_43103" x1="2.91699" y1="19.9998" x2="37.0837" y2="19.9998" gradientUnits="userSpaceOnUse">
<stop stop-color="#3B32F6"/>
<stop offset="1" stop-color="#49A6FF"/>
</linearGradient>
<linearGradient id="paint1_linear_392_43103" x1="2.91699" y1="19.9998" x2="37.0837" y2="19.9998" gradientUnits="userSpaceOnUse">
<stop stop-color="#3B32F6"/>
<stop offset="1" stop-color="#49A6FF"/>
</linearGradient>
</defs>
</svg>
