<svg width="36" height="36" viewBox="0 0 36 36" fill="none" xmlns="http://www.w3.org/2000/svg">
<path fill-rule="evenodd" clip-rule="evenodd" d="M24.2441 7.40236C23.3309 9.27136 22.725 11.9554 22.725 14.9998C22.725 18.044 23.3309 20.7281 24.2441 22.5971C25.1999 24.5534 26.2564 25.208 27 25.208C27.7436 25.208 28.8001 24.5534 29.7559 22.5971C30.6691 20.7281 31.275 18.044 31.275 14.9998C31.275 11.9554 30.6691 9.27136 29.7559 7.40236C28.8001 5.44614 27.7436 4.79142 27 4.79142C26.2564 4.79142 25.1999 5.44614 24.2441 7.40236ZM21.6949 6.09799C22.8021 3.8317 24.5955 1.87476 27 1.87476C29.4045 1.87476 31.1979 3.8317 32.305 6.09799C33.4549 8.45149 34.125 11.6008 34.125 14.9998C34.125 18.3988 33.4549 21.548 32.305 23.9015C31.1979 26.1677 29.4045 28.1248 27 28.1248C24.5955 28.1248 22.8021 26.1677 21.6949 23.9015C20.545 21.548 19.875 18.3988 19.875 14.9998C19.875 11.6008 20.545 8.45149 21.6949 6.09799Z" fill="#084FEE"/>
<path opacity="0.4" d="M27 1.87476C24.4776 1.87476 20.749 2.8215 17.0707 3.98731C13.3472 5.16747 9.52152 6.62383 6.73913 7.73565C3.75959 8.92624 1.875 11.8232 1.875 14.9998C1.875 18.1763 3.75959 21.0733 6.73913 22.2638C9.52152 23.3756 13.3472 24.832 17.0707 26.0122C20.749 27.178 24.4776 28.1248 27 28.1248C24.5955 28.1248 22.8021 26.1677 21.6949 23.9015C20.545 21.548 19.875 18.3988 19.875 14.9998C19.875 11.6008 20.545 8.45149 21.6949 6.09799C22.8021 3.8317 24.5955 1.87476 27 1.87476Z" fill="#084FEE"/>
<path d="M7.52051 22.5745C8.44015 22.9375 9.45032 23.3282 10.5168 23.7281C10.684 26.216 12.0932 28.487 14.3085 29.7065L17.2233 31.3109C17.9492 31.7105 18.2136 32.6227 17.8142 33.3484C17.4146 34.0741 16.5024 34.3387 15.7767 33.9391L12.8618 32.3345C9.33178 30.3914 7.26986 26.5723 7.52051 22.5745Z" fill="#084FEE"/>
</svg>
