<svg width="36" height="36" viewBox="0 0 36 36" fill="none" xmlns="http://www.w3.org/2000/svg">
<path opacity="0.4" fill-rule="evenodd" clip-rule="evenodd" d="M30.0222 14.5484C29.1776 14.9195 28.0841 15.5722 26.4609 16.5463L26.2721 16.6596C25.5617 17.0859 24.6404 16.8556 24.2141 16.1452C23.7878 15.4348 24.018 14.5135 24.7284 14.0873L24.9173 13.9739C24.9471 13.956 24.977 13.9381 25.0067 13.9203C26.5173 13.0137 27.7749 12.259 28.8155 11.8018C29.8767 11.3355 31.0439 11.0232 32.2337 11.4521C32.8265 11.6659 33.3231 12.031 33.6894 12.5524C34.0349 13.0438 34.2113 13.5984 34.3133 14.1224C34.5006 15.0861 34.5005 16.3519 34.5003 17.752C34.5003 17.7997 34.5003 17.8478 34.5003 17.8959V19.6018C34.5003 19.65 34.5003 19.698 34.5003 19.7457C34.5005 21.1458 34.5006 22.4116 34.3133 23.3754C34.2113 23.8994 34.0349 24.4541 33.6894 24.9455C33.3231 25.4667 32.8265 25.832 32.2337 26.0457C31.0439 26.4746 29.8767 26.1622 28.8155 25.6959C27.7749 25.2388 26.5173 24.484 25.0067 23.5774L24.7284 23.4105C24.018 22.9842 23.7878 22.0629 24.2141 21.3525C24.6404 20.6421 25.5617 20.4119 26.2721 20.8382L26.4609 20.9514C28.0841 21.9255 29.1776 22.5783 30.0222 22.9494C30.8667 23.3203 31.1307 23.2542 31.2162 23.2234C31.2263 23.2197 31.2338 23.2167 31.239 23.2143C31.2582 23.1839 31.3155 23.0748 31.3685 22.8026C31.4934 22.16 31.5003 21.1933 31.5003 19.6018V17.8959C31.5003 16.3044 31.4934 15.3378 31.3685 14.6951C31.3155 14.423 31.2582 14.3139 31.239 14.2835C31.2338 14.2811 31.2263 14.278 31.2162 14.2743C31.1307 14.2435 30.8667 14.1774 30.0222 14.5484Z" fill="#084FEE"/>
<path fill-rule="evenodd" clip-rule="evenodd" d="M18.7504 5.09941C17.425 5.09941 16.3504 6.17392 16.3504 7.49941C16.3504 8.8249 17.425 9.89941 18.7504 9.89941C20.0759 9.89941 21.1504 8.8249 21.1504 7.49941C21.1504 6.17392 20.0759 5.09941 18.7504 5.09941ZM13.6504 7.49941C13.6504 4.68276 15.9337 2.39941 18.7504 2.39941C21.5671 2.39941 23.8504 4.68276 23.8504 7.49941C23.8504 10.3161 21.5671 12.5994 18.7504 12.5994C15.9337 12.5994 13.6504 10.3161 13.6504 7.49941Z" fill="#084FEE"/>
<path fill-rule="evenodd" clip-rule="evenodd" d="M10.5004 3.59942C8.76069 3.59942 7.35039 5.00972 7.35039 6.74942C7.35039 8.48912 8.76069 9.89942 10.5004 9.89942C12.2401 9.89942 13.6504 8.48912 13.6504 6.74942C13.6504 5.00972 12.2401 3.59942 10.5004 3.59942ZM4.65039 6.74942C4.65039 3.51855 7.26953 0.899414 10.5004 0.899414C13.7313 0.899414 16.3504 3.51855 16.3504 6.74942C16.3504 9.98028 13.7313 12.5994 10.5004 12.5994C7.26953 12.5994 4.65039 9.98028 4.65039 6.74942Z" fill="#084FEE"/>
<path opacity="0.4" fill-rule="evenodd" clip-rule="evenodd" d="M9.5328 27.3457L5.68933 31.1892C5.10356 31.7749 5.10356 32.7247 5.68933 33.3105C6.27513 33.8962 7.22487 33.8962 7.81066 33.3105L12.75 28.3711V33.7498C12.75 34.5783 13.4216 35.2498 14.25 35.2498C15.0784 35.2498 15.75 34.5783 15.75 33.7498V28.3711L20.6893 33.3105C21.2751 33.8962 22.2249 33.8962 22.8106 33.3105C23.3964 32.7247 23.3964 31.7749 22.8106 31.1892L18.9672 27.3457C17.848 27.3748 16.5529 27.3748 15.0547 27.3748H13.4452C11.947 27.3748 10.6519 27.3748 9.5328 27.3457Z" fill="#084FEE"/>
<path fill-rule="evenodd" clip-rule="evenodd" d="M13.4452 10.125H15.0547C17.4832 10.125 19.378 10.125 20.8549 10.2491C22.3405 10.3739 23.5602 10.6331 24.5586 11.2571C25.6251 11.9237 26.1621 12.8338 26.4076 13.9755C26.6253 14.9873 26.6251 16.2497 26.625 17.699C26.625 17.7368 26.625 17.7745 26.625 17.8125V19.6875C26.625 19.7254 26.625 19.7632 26.625 19.8011C26.6251 21.2503 26.6253 22.5127 26.4076 23.5245C26.1621 24.6661 25.6251 25.5764 24.5586 26.243C23.5602 26.867 22.3405 27.1261 20.8549 27.2509C19.378 27.375 17.4832 27.375 15.0547 27.375H13.4452C11.0167 27.375 9.12194 27.375 7.64513 27.2509C6.15944 27.1261 4.93984 26.867 3.94145 26.243C2.87485 25.5764 2.33797 24.6661 2.09237 23.5245C1.87472 22.5127 1.87486 21.2503 1.87501 19.8011C1.87501 19.7632 1.87501 19.7254 1.87501 19.6875V17.8125C1.87501 17.7745 1.87501 17.7368 1.87501 17.699C1.87486 16.2497 1.87472 14.9873 2.09237 13.9755C2.33797 12.8338 2.87485 11.9237 3.94145 11.2571C4.93984 10.6331 6.15944 10.3739 7.64513 10.2491C9.12194 10.125 11.0167 10.125 13.4452 10.125Z" fill="#084FEE"/>
</svg>
