<svg width="21" height="20" viewBox="0 0 21 20" fill="none" xmlns="http://www.w3.org/2000/svg">
<path d="M6.39547 8.1775L4.68047 9.8925C3.97715 10.5958 3.58203 11.5497 3.58203 12.5444C3.58203 13.539 3.97715 14.4929 4.68047 15.1962C5.38379 15.8996 6.3377 16.2947 7.33235 16.2947C8.32699 16.2947 9.2809 15.8996 9.98422 15.1962L12.2692 12.91C12.6933 12.4858 13.0095 11.9661 13.1912 11.3944C13.3729 10.8228 13.4148 10.2159 13.3134 9.62467C13.212 9.03346 12.9703 8.47521 12.6085 7.99676C12.2467 7.51831 11.7754 7.13362 11.2342 6.875L10.5017 7.6075C10.4274 7.682 10.3627 7.76557 10.3092 7.85625C10.7274 7.97646 11.1069 8.20372 11.4103 8.51557C11.7138 8.82742 11.9305 9.21305 12.0392 9.63435C12.1479 10.0556 12.1448 10.498 12.0301 10.9177C11.9155 11.3375 11.6933 11.72 11.3855 12.0275L9.10172 14.3125C8.63262 14.7816 7.99638 15.0451 7.33297 15.0451C6.66956 15.0451 6.03333 14.7816 5.56422 14.3125C5.09512 13.8434 4.83158 13.2072 4.83158 12.5437C4.83158 11.8803 5.09512 11.2441 5.56422 10.775L6.55547 9.785C6.41562 9.26091 6.36158 8.71887 6.39547 8.1775Z" fill="#5D6369"/>
<path d="M8.73097 5.83999C8.30686 6.26416 7.99068 6.78389 7.80899 7.35555C7.62729 7.92721 7.58538 8.53411 7.68677 9.12532C7.78816 9.71652 8.0299 10.2748 8.39169 10.7532C8.75347 11.2317 9.22475 11.6164 9.76597 11.875L10.7347 10.905C10.3109 10.7913 9.92448 10.5681 9.61427 10.2577C9.30406 9.9474 9.08099 9.56087 8.96749 9.13701C8.85399 8.71315 8.85404 8.26688 8.96765 7.84304C9.08127 7.41921 9.30443 7.03275 9.61472 6.72249L11.8985 4.43749C12.3676 3.96838 13.0038 3.70485 13.6672 3.70485C14.3306 3.70485 14.9669 3.96838 15.436 4.43749C15.9051 4.90659 16.1686 5.54283 16.1686 6.20624C16.1686 6.86965 15.9051 7.50588 15.436 7.97498L14.4447 8.96498C14.5847 9.48998 14.6385 10.0337 14.6047 10.5737L16.3197 8.85873C17.023 8.15541 17.4182 7.20151 17.4182 6.20686C17.4182 5.21221 17.023 4.25831 16.3197 3.55499C15.6164 2.85166 14.6625 2.45654 13.6678 2.45654C12.6732 2.45654 11.7193 2.85166 11.016 3.55499L8.73097 5.83999Z" fill="#5D6369"/>
</svg>
