<svg width="36" height="36" viewBox="0 0 36 36" fill="none" xmlns="http://www.w3.org/2000/svg">
<path d="M2.00684 14.8374C1.86521 15.5638 1.79439 15.9271 2.02083 16.2023C2.24727 16.4777 2.64056 16.4777 3.42713 16.4777H8.9921C9.67335 16.4777 10.014 16.4777 10.2311 16.2761C10.4482 16.0745 10.4747 15.7246 10.5277 15.0248C10.7687 11.8407 11.3919 8.95194 12.301 6.66962C12.8714 5.23763 13.6225 3.81054 14.7348 2.72222C15.21 2.25735 15.4475 2.02491 15.3932 1.92453C15.3387 1.82414 15.0366 1.89188 14.4325 2.02736C8.15712 3.43466 3.24708 8.47605 2.00684 14.8374Z" fill="#3B32F6"/>
<path d="M3.42715 19.5225C2.64055 19.5225 2.24727 19.5225 2.02083 19.7979C1.79439 20.0731 1.86522 20.4364 2.00686 21.1629C3.24717 27.5241 8.1571 32.5653 14.4323 33.9726C15.0363 34.108 15.3384 34.1757 15.3927 34.0753C15.4471 33.975 15.2097 33.7426 14.7346 33.2779C13.6224 32.1895 12.8713 30.7626 12.301 29.3307C11.3919 27.0483 10.7687 24.1596 10.5276 20.9755C10.4746 20.2756 10.4481 19.9257 10.231 19.7241C10.014 19.5225 9.67332 19.5225 8.99206 19.5225H3.42715Z" fill="#3B32F6"/>
<path d="M21.2557 33.2797C20.7807 33.7441 20.5431 33.9765 20.5975 34.0768C20.6518 34.1772 20.9538 34.1097 21.5577 33.9747C27.8373 32.5702 32.7514 27.5271 33.9924 21.1629C34.134 20.4364 34.2048 20.0731 33.9784 19.7979C33.7519 19.5225 33.3586 19.5225 32.572 19.5225H27.0003C26.319 19.5225 25.9783 19.5225 25.7613 19.7241C25.5441 19.9257 25.5177 20.2756 25.4646 20.9755C25.2235 24.1596 24.6004 27.0483 23.6913 29.3307C23.1207 30.7633 22.369 32.1912 21.2557 33.2797Z" fill="#3B32F6"/>
<path d="M32.5724 16.4778C33.359 16.4778 33.7523 16.4778 33.9788 16.2024C34.2052 15.9271 34.1344 15.5638 33.9928 14.8375C32.752 8.47305 27.8377 3.42984 21.5579 2.02539C20.9539 1.89028 20.6518 1.82274 20.5975 1.92313C20.5432 2.02354 20.7808 2.25585 21.256 2.72044C22.3694 3.80895 23.1211 5.23693 23.6917 6.66969C24.6008 8.95201 25.2239 11.8407 25.465 15.0249C25.5181 15.7246 25.5445 16.0746 25.7617 16.2762C25.9787 16.4778 26.3194 16.4778 27.0007 16.4778H32.5724Z" fill="#3B32F6"/>
<g opacity="0.4">
<path d="M20.9047 7.95048C21.6543 9.7889 22.2118 12.1994 22.4538 14.9395C22.5169 15.6555 22.5486 16.0136 22.3228 16.2567C22.0972 16.5 21.7222 16.5 20.9722 16.5H15.0277C14.2778 16.5 13.9028 16.5 13.6771 16.2567C13.4514 16.0136 13.483 15.6555 13.5463 14.9395C13.7882 12.1994 14.3457 9.7889 15.0952 7.95048C15.606 6.69785 16.1758 5.78479 16.7304 5.20944C17.2819 4.63725 17.7115 4.5 18 4.5C18.2884 4.5 18.718 4.63725 19.2696 5.20944C19.8241 5.78479 20.394 6.69785 20.9047 7.95048Z" fill="#3B32F6"/>
<path d="M15.0952 28.0495C14.3457 26.2111 13.7882 23.8007 13.5463 21.0605C13.483 20.3445 13.4514 19.9864 13.6771 19.7433C13.9028 19.5 14.2778 19.5 15.0277 19.5H20.9722C21.7222 19.5 22.0972 19.5 22.3228 19.7433C22.5486 19.9864 22.5169 20.3445 22.4538 21.0605C22.2118 23.8007 21.6543 26.2111 20.9047 28.0495C20.394 29.3022 19.8241 30.2153 19.2696 30.7905C18.718 31.3628 18.2884 31.5 18 31.5C17.7115 31.5 17.2819 31.3628 16.7304 30.7905C16.1758 30.2153 15.606 29.3022 15.0952 28.0495Z" fill="#3B32F6"/>
</g>
</svg>
