<svg width="36" height="36" viewBox="0 0 36 36" fill="none" xmlns="http://www.w3.org/2000/svg">
<path d="M21.1829 3.63754L20.1884 2.26532C20.0499 2.07425 19.9808 1.97873 19.8752 1.92941C19.7697 1.88011 19.6578 1.88788 19.434 1.90343C16.8845 2.08057 14.5613 3.08024 12.7278 4.63904C12.6309 4.72136 12.6903 4.8712 12.8172 4.87867C14.2881 4.96526 15.071 5.78249 15.9284 6.68894C17.2536 8.09005 18.2957 7.9742 18.7842 7.71596C18.9839 7.61044 19.0206 7.53577 19.0332 7.51003L19.0341 7.50817C19.074 7.42763 19.0907 7.34155 19.1501 7.0156C19.1997 6.7432 19.286 6.27557 19.5848 5.82407C19.9008 5.34661 20.3726 4.99852 20.9946 4.75189C21.254 4.64908 21.3338 4.50514 21.3626 4.36942C21.3984 4.20029 21.3695 3.93116 21.1829 3.63754Z" fill="url(#paint0_linear_392_43084)"/>
<path d="M22.6069 24.5313C22.7792 24.6756 22.8653 24.7479 22.9742 24.7713C23.0831 24.7947 23.1859 24.7659 23.3915 24.7085C27.0944 23.6712 30.0505 20.8455 31.2706 17.2211C31.4306 16.7454 31.5107 16.5077 31.376 16.3202C31.2413 16.1328 30.9766 16.1328 30.4471 16.1328H30.001C29.2513 16.1328 28.8409 16.4094 28.2389 16.8239L28.2175 16.8386C27.595 17.2671 26.686 17.8931 25.2803 17.6118C23.428 17.2412 22.5422 17.3397 22.1603 17.5163C22.018 17.5821 21.9608 17.6516 21.9205 17.7329C21.8669 17.8409 21.8134 18.0381 21.8134 18.3857L21.8135 18.5165C21.8138 19.2833 21.8141 19.8627 21.6826 20.3912C21.5456 20.9411 21.2734 21.4086 20.9383 21.9843L20.881 22.0826C20.6635 22.457 20.6219 22.6643 20.6263 22.7607C20.6278 22.7933 20.6342 22.821 20.6567 22.8597C20.6828 22.9043 20.7479 22.9914 20.9048 23.1078C20.9228 23.121 20.9404 23.1348 20.9573 23.1492L22.6069 24.5313Z" fill="url(#paint1_linear_392_43084)"/>
<path opacity="0.4" d="M23.3112 2.87209C23.1648 2.55331 23.0916 2.39392 23.1558 2.3208C23.2199 2.24769 23.3736 2.29512 23.6811 2.39001C28.4265 3.85461 31.875 8.27764 31.875 13.5066C31.875 13.7157 31.703 13.8818 31.4939 13.8818H30C28.5399 13.8818 27.6348 14.5059 27.0134 14.9344L26.9627 14.9693C26.3609 15.3836 26.1495 15.4903 25.7207 15.4044C23.823 15.0247 22.3026 14.9703 21.2156 15.4729C20.6237 15.7465 20.1807 16.1756 19.9046 16.7312C19.6418 17.2604 19.5624 17.8388 19.5624 18.386C19.5624 19.3425 19.5543 19.6223 19.4984 19.847C19.4481 20.0489 19.3536 20.2308 18.9351 20.9511C18.6453 21.4495 18.3444 22.1153 18.3776 22.8608C18.4136 23.675 18.8325 24.3639 19.5353 24.8951C19.6269 24.9719 19.5689 25.119 19.4496 25.1109C13.4027 24.6995 8.625 19.6612 8.625 13.5066C8.625 11.4409 9.16318 9.50092 10.1069 7.81948C10.2888 7.49547 10.3797 7.33347 10.5552 7.23069C10.7308 7.12792 10.9328 7.12792 11.3369 7.12792H12.714C13.1858 7.16124 13.4255 7.31902 14.2932 8.23636C16.1168 10.1643 18.2235 10.5579 19.8342 9.70645C20.4168 9.3985 20.8083 8.99367 21.0491 8.5078C21.2403 8.12181 21.3107 7.71675 21.3503 7.48879L21.3626 7.41921C21.41 7.159 21.4377 7.10023 21.4598 7.06693C21.467 7.05577 21.5276 6.96165 21.8223 6.84478C22.7673 6.47014 23.3736 5.72571 23.5623 4.8372C23.7063 4.1592 23.5917 3.48289 23.3112 2.87209Z" fill="url(#paint2_linear_392_43084)"/>
<path fill-rule="evenodd" clip-rule="evenodd" d="M10.8255 1.95438C11.403 2.54835 11.3896 3.49801 10.7956 4.07548C8.29566 6.50602 6.75 9.88577 6.75 13.6238C6.75 20.9996 12.7824 27 20.25 27C23.9339 27 27.2687 25.5401 29.7044 23.172C30.2984 22.5945 31.248 22.608 31.8255 23.2019C32.403 23.7959 32.3897 24.7455 31.7957 25.323C28.8201 28.2159 24.7425 30 20.25 30V31.5H21.75C22.5785 31.5 23.25 32.1716 23.25 33C23.25 33.8285 22.5785 34.5 21.75 34.5H15.75C14.9216 34.5 14.25 33.8285 14.25 33C14.25 32.1716 14.9216 31.5 15.75 31.5H17.25V29.7299C9.57732 28.3304 3.75 21.6606 3.75 13.6238C3.75 9.03884 5.65025 4.89382 8.70438 1.92451C9.29835 1.34703 10.248 1.3604 10.8255 1.95438Z" fill="url(#paint3_linear_392_43084)"/>
<defs>
<linearGradient id="paint0_linear_392_43084" x1="12.6797" y1="4.88378" x2="21.3759" y2="4.88378" gradientUnits="userSpaceOnUse">
<stop stop-color="#3B32F6"/>
<stop offset="1" stop-color="#49A6FF"/>
</linearGradient>
<linearGradient id="paint1_linear_392_43084" x1="20.626" y1="20.4561" x2="31.4443" y2="20.4561" gradientUnits="userSpaceOnUse">
<stop stop-color="#3B32F6"/>
<stop offset="1" stop-color="#49A6FF"/>
</linearGradient>
<linearGradient id="paint2_linear_392_43084" x1="8.625" y1="13.6982" x2="31.875" y2="13.6982" gradientUnits="userSpaceOnUse">
<stop stop-color="#3B32F6"/>
<stop offset="1" stop-color="#49A6FF"/>
</linearGradient>
<linearGradient id="paint3_linear_392_43084" x1="3.75" y1="18" x2="32.25" y2="18" gradientUnits="userSpaceOnUse">
<stop stop-color="#3B32F6"/>
<stop offset="1" stop-color="#49A6FF"/>
</linearGradient>
</defs>
</svg>
