<svg width="24" height="24" viewBox="0 0 24 24" fill="none" xmlns="http://www.w3.org/2000/svg">
<path d="M18 21.999C17.1667 21.999 16.4583 21.7074 15.875 21.124C15.2917 20.5407 15 19.8324 15 18.999C15 18.8824 15.0083 18.7614 15.025 18.636C15.0417 18.5107 15.0667 18.3984 15.1 18.299L8.05 14.199C7.76667 14.449 7.45 14.645 7.1 14.787C6.75 14.929 6.38333 14.9997 6 14.999C5.16667 14.999 4.45833 14.7074 3.875 14.124C3.29167 13.5407 3 12.8324 3 11.999C3 11.1657 3.29167 10.4574 3.875 9.87402C4.45833 9.29069 5.16667 8.99902 6 8.99902C6.38333 8.99902 6.75 9.07002 7.1 9.21202C7.45 9.35402 7.76667 9.54969 8.05 9.79902L15.1 5.69902C15.0667 5.59902 15.0417 5.48669 15.025 5.36202C15.0083 5.23736 15 5.11636 15 4.99902C15 4.16569 15.2917 3.45736 15.875 2.87402C16.4583 2.29069 17.1667 1.99902 18 1.99902C18.8333 1.99902 19.5417 2.29069 20.125 2.87402C20.7083 3.45736 21 4.16569 21 4.99902C21 5.83236 20.7083 6.54069 20.125 7.12402C19.5417 7.70736 18.8333 7.99902 18 7.99902C17.6167 7.99902 17.25 7.92836 16.9 7.78702C16.55 7.64569 16.2333 7.44969 15.95 7.19902L8.9 11.299C8.93333 11.399 8.95833 11.5117 8.975 11.637C8.99167 11.7624 9 11.883 9 11.999C9 12.1157 8.99167 12.2367 8.975 12.362C8.95833 12.4874 8.93333 12.5997 8.9 12.699L15.95 16.799C16.2333 16.549 16.55 16.3534 16.9 16.212C17.25 16.0707 17.6167 15.9997 18 15.999C18.8333 15.999 19.5417 16.2907 20.125 16.874C20.7083 17.4574 21 18.1657 21 18.999C21 19.8324 20.7083 20.5407 20.125 21.124C19.5417 21.7074 18.8333 21.999 18 21.999ZM18 5.99902C18.2833 5.99902 18.521 5.90302 18.713 5.71102C18.905 5.51902 19.0007 5.28169 19 4.99902C19 4.71569 18.904 4.47802 18.712 4.28602C18.52 4.09402 18.2827 3.99836 18 3.99902C17.7167 3.99902 17.479 4.09502 17.287 4.28702C17.095 4.47902 16.9993 4.71636 17 4.99902C17 5.28236 17.096 5.52002 17.288 5.71202C17.48 5.90402 17.7173 5.99969 18 5.99902ZM6 12.999C6.28333 12.999 6.521 12.903 6.713 12.711C6.905 12.519 7.00067 12.2817 7 11.999C7 11.7157 6.904 11.478 6.712 11.286C6.52 11.094 6.28267 10.9984 6 10.999C5.71667 10.999 5.479 11.095 5.287 11.287C5.095 11.479 4.99933 11.7164 5 11.999C5 12.2824 5.096 12.52 5.288 12.712C5.48 12.904 5.71733 12.9997 6 12.999ZM18 19.999C18.2833 19.999 18.521 19.903 18.713 19.711C18.905 19.519 19.0007 19.2817 19 18.999C19 18.7157 18.904 18.478 18.712 18.286C18.52 18.094 18.2827 17.9984 18 17.999C17.7167 17.999 17.479 18.095 17.287 18.287C17.095 18.479 16.9993 18.7164 17 18.999C17 19.2824 17.096 19.52 17.288 19.712C17.48 19.904 17.7173 19.9997 18 19.999Z" fill="white"/>
</svg>
