<svg width="20" height="20" viewBox="0 0 20 20" fill="none" xmlns="http://www.w3.org/2000/svg">
<circle cx="10" cy="10" r="10" fill="white"/>
<path d="M15.8984 12.9792C15.5435 14.111 14.4389 14.9197 13.1374 14.9816C12.5421 15.01 11.9441 14.9964 11.3473 14.9971C9.96537 14.9988 8.58339 15.0012 7.20145 14.9967C5.69332 14.9918 4.49957 14.2056 4.11072 12.9707C3.76533 11.8737 4.24716 10.6751 5.28943 10.0165C5.37678 9.96126 5.45057 9.87028 5.49368 9.7817C5.73841 9.2789 6.07434 8.84056 6.60162 8.54253C6.75682 8.45481 6.93906 8.39906 7.11665 8.35148C7.18256 8.33383 7.30101 8.36071 7.34001 8.40548C7.37838 8.44953 7.37811 8.56235 7.3397 8.60961C7.19275 8.79044 7.03983 8.9723 6.85822 9.12465C6.67407 9.27915 6.58181 9.44407 6.58829 9.67023C6.59968 10.0679 6.59255 10.4661 6.59109 10.8641C6.59036 11.0613 6.64961 11.2324 6.86054 11.3277C7.06843 11.4217 7.25967 11.3769 7.44196 11.2584C7.68754 11.0987 7.9387 10.9458 8.16217 10.8059C8.34712 10.9669 8.52355 11.1156 8.69155 11.2715C8.72034 11.2982 8.72317 11.3559 8.72104 11.3986C8.70744 11.6709 8.8225 11.8664 9.14259 11.9494C8.69487 12.4715 8.73698 13.0293 8.9976 13.5798C9.15949 13.9217 9.37825 14.246 9.606 14.5584C9.79299 14.8148 10.1868 14.8259 10.3878 14.589C10.7612 14.1491 11.0563 13.6711 11.175 13.1209C11.2659 12.6992 11.1984 12.3072 10.8832 11.9522C11.2136 11.8625 11.3252 11.6592 11.3053 11.3807C11.3026 11.344 11.3098 11.2948 11.3354 11.2704C11.4968 11.1167 11.6647 10.9684 11.8489 10.8016C12.0682 10.9386 12.3178 11.0893 12.5609 11.2478C12.7468 11.3691 12.9421 11.4314 13.1571 11.3282C13.3682 11.2269 13.4315 11.0516 13.4293 10.8462C13.4247 10.431 13.4246 10.0157 13.4294 9.60044C13.4315 9.42027 13.3756 9.25812 13.2044 9.16481C12.7737 8.93009 12.5951 8.60934 12.6875 8.16127C12.7135 8.03515 12.6744 7.89843 12.6637 7.74609C12.747 7.78981 12.8206 7.82366 12.8886 7.8649C13.5967 8.29442 14.0366 8.88253 14.2172 9.62803C14.2334 9.69517 14.2946 9.77544 14.3608 9.8081C15.6609 10.4495 16.2539 11.6574 15.8984 12.9792Z" fill="url(#paint0_linear_53_26225)"/>
<path d="M8.58709 10.2134C8.54899 10.1526 8.51917 10.1024 8.47133 10.0219C8.73083 10.0219 8.96546 10.022 9.2001 10.0219C9.26494 10.0219 9.34162 10.0408 9.3918 10.0166C9.46505 9.98125 9.51925 9.91472 9.58157 9.86147C9.51744 9.81071 9.45646 9.72042 9.38863 9.71614C9.11764 9.69908 8.84452 9.70867 8.5722 9.70856C8.26661 9.70844 8.2489 9.69394 8.2105 9.39649C8.74947 9.39649 9.28658 9.39653 9.8237 9.39644C9.88853 9.39643 9.96583 9.4155 10.0152 9.39079C10.0877 9.35458 10.1777 9.29382 10.1925 9.23092C10.2169 9.1273 10.1181 9.08354 10.0064 9.08328C9.68867 9.08253 9.37095 9.08272 9.05324 9.08263C8.77442 9.08255 8.49534 9.08824 8.21703 9.07767C8.16323 9.07562 8.07526 9.01653 8.06585 8.97303C7.89247 8.17152 8.02337 7.40619 8.4354 6.65652C9.48253 7.10728 10.5307 7.11242 11.5825 6.65625C11.924 7.26772 12.0701 7.9027 12.0156 8.57126C11.9545 9.32065 11.6492 9.99097 11.145 10.5897C11.1005 10.6426 11.002 10.6873 10.9277 10.6882C10.3185 10.6961 9.70893 10.6966 9.09969 10.6879C9.01986 10.6867 8.91995 10.6368 8.86653 10.5813C8.76224 10.4728 8.68426 10.3443 8.58709 10.2134ZM10.7853 7.97855C10.7056 7.54369 10.2952 7.27946 9.83724 7.36811C9.40947 7.45091 9.14603 7.85138 9.26706 8.23485C9.36834 8.55575 9.73178 8.76991 10.1006 8.72603C10.5135 8.67691 10.776 8.40246 10.7853 7.97855Z" fill="url(#paint1_linear_53_26225)"/>
<path d="M10.8162 6.59745C10.0422 6.77075 9.31447 6.70192 8.60645 6.38307C8.96969 5.8381 9.44547 5.39735 10.0068 5C10.5707 5.37584 11.0365 5.82905 11.4271 6.39289C11.2208 6.46275 11.0263 6.52864 10.8162 6.59745Z" fill="url(#paint2_linear_53_26225)"/>
<path d="M10.4348 13.3158C10.3045 13.5601 10.1778 13.7913 10.0266 14.067C9.69968 13.5942 9.4076 13.1656 9.50108 12.6262C9.5429 12.3849 9.75438 12.217 9.99424 12.2093C10.2489 12.2011 10.448 12.3548 10.5195 12.6107C10.5864 12.8505 10.523 13.0773 10.4348 13.3158Z" fill="url(#paint3_linear_53_26225)"/>
<path d="M12.7587 9.79717C12.7587 10.0766 12.7587 10.34 12.7587 10.6464C12.4634 10.4617 12.2001 10.3007 11.9441 10.1308C11.9196 10.1146 11.9279 10.0386 11.9443 9.99781C12.0446 9.74917 12.1516 9.50269 12.2666 9.23145C12.4215 9.42145 12.775 9.45891 12.7587 9.79717Z" fill="url(#paint4_linear_53_26225)"/>
<path d="M7.81556 9.37877C7.91436 9.62968 8.00883 9.86732 8.10793 10.1166C7.84211 10.2832 7.57318 10.4517 7.26793 10.643C7.26793 10.2888 7.26232 9.96431 7.27415 9.64032C7.27587 9.59315 7.35678 9.54424 7.4083 9.50336C7.51828 9.41609 7.63301 9.33356 7.75761 9.24023C7.78083 9.29446 7.79603 9.32998 7.81556 9.37877Z" fill="url(#paint5_linear_53_26225)"/>
<path d="M10.276 10.999C10.3981 10.999 10.5009 10.999 10.6183 10.999C10.6183 11.1129 10.6183 11.2189 10.6183 11.3391C10.2289 11.3391 9.8319 11.3391 9.41895 11.3391C9.41895 11.2325 9.41895 11.1222 9.41895 10.999C9.70246 10.999 9.97963 10.999 10.276 10.999Z" fill="url(#paint6_linear_53_26225)"/>
<path d="M10.7857 7.99314C10.7757 8.40198 10.5133 8.67643 10.1004 8.72555C9.73153 8.76943 9.36808 8.55528 9.2668 8.23438C9.14577 7.8509 9.40922 7.45043 9.83698 7.36763C10.295 7.27899 10.7053 7.54322 10.7857 7.99314ZM10.4302 7.92296C10.3245 7.72959 10.1714 7.63096 9.98457 7.64851C9.80238 7.66562 9.67063 7.74924 9.60666 7.90705C9.54176 8.06719 9.593 8.20444 9.72461 8.31627C9.86077 8.43197 10.0254 8.44483 10.1943 8.38028C10.3753 8.31107 10.4486 8.17411 10.4302 7.92296Z" fill="url(#paint7_linear_53_26225)"/>
<path d="M10.4333 7.93698C10.4491 8.17408 10.3758 8.31103 10.1948 8.38024C10.0259 8.4448 9.86125 8.43194 9.72509 8.31624C9.59348 8.20441 9.54223 8.06716 9.60714 7.90702C9.67111 7.7492 9.80285 7.66559 9.98504 7.64848C10.1719 7.63093 10.325 7.72956 10.4333 7.93698Z" fill="url(#paint8_linear_53_26225)"/>
<defs>
<linearGradient id="paint0_linear_53_26225" x1="4" y1="11.3729" x2="16" y2="11.3729" gradientUnits="userSpaceOnUse">
<stop stop-color="#3B32F6"/>
<stop offset="1" stop-color="#49A6FF"/>
</linearGradient>
<linearGradient id="paint1_linear_53_26225" x1="7.99121" y1="8.67526" x2="12.0268" y2="8.67526" gradientUnits="userSpaceOnUse">
<stop stop-color="#3B32F6"/>
<stop offset="1" stop-color="#49A6FF"/>
</linearGradient>
<linearGradient id="paint2_linear_53_26225" x1="8.60645" y1="5.84506" x2="11.4271" y2="5.84506" gradientUnits="userSpaceOnUse">
<stop stop-color="#3B32F6"/>
<stop offset="1" stop-color="#49A6FF"/>
</linearGradient>
<linearGradient id="paint3_linear_53_26225" x1="9.4834" y1="13.138" x2="10.5474" y2="13.138" gradientUnits="userSpaceOnUse">
<stop stop-color="#3B32F6"/>
<stop offset="1" stop-color="#49A6FF"/>
</linearGradient>
<linearGradient id="paint4_linear_53_26225" x1="11.9287" y1="9.93895" x2="12.7593" y2="9.93895" gradientUnits="userSpaceOnUse">
<stop stop-color="#3B32F6"/>
<stop offset="1" stop-color="#49A6FF"/>
</linearGradient>
<linearGradient id="paint5_linear_53_26225" x1="7.2666" y1="9.94161" x2="8.10793" y2="9.94161" gradientUnits="userSpaceOnUse">
<stop stop-color="#3B32F6"/>
<stop offset="1" stop-color="#49A6FF"/>
</linearGradient>
<linearGradient id="paint6_linear_53_26225" x1="9.41895" y1="11.1691" x2="10.6183" y2="11.1691" gradientUnits="userSpaceOnUse">
<stop stop-color="#3B32F6"/>
<stop offset="1" stop-color="#49A6FF"/>
</linearGradient>
<linearGradient id="paint7_linear_53_26225" x1="9.2373" y1="8.04092" x2="10.7857" y2="8.04092" gradientUnits="userSpaceOnUse">
<stop stop-color="#3B32F6"/>
<stop offset="1" stop-color="#49A6FF"/>
</linearGradient>
<linearGradient id="paint8_linear_53_26225" x1="9.5791" y1="8.03271" x2="10.4354" y2="8.03271" gradientUnits="userSpaceOnUse">
<stop stop-color="#3B32F6"/>
<stop offset="1" stop-color="#49A6FF"/>
</linearGradient>
</defs>
</svg>
