<svg width="21" height="20" viewBox="0 0 21 20" fill="none" xmlns="http://www.w3.org/2000/svg">
<circle cx="10.5" cy="10" r="10" fill="url(#paint0_linear_54_27089)"/>
<path d="M16.3984 12.9792C16.0435 14.111 14.9389 14.9197 13.6374 14.9816C13.0421 15.01 12.4441 14.9964 11.8473 14.9971C10.4654 14.9988 9.08339 15.0012 7.70145 14.9967C6.19332 14.9918 4.99957 14.2056 4.61072 12.9707C4.26533 11.8737 4.74716 10.6751 5.78943 10.0165C5.87678 9.96126 5.95057 9.87028 5.99368 9.7817C6.23841 9.2789 6.57434 8.84056 7.10162 8.54253C7.25682 8.45481 7.43906 8.39906 7.61665 8.35148C7.68256 8.33383 7.80101 8.36071 7.84001 8.40548C7.87838 8.44953 7.87811 8.56235 7.8397 8.60961C7.69275 8.79044 7.53983 8.9723 7.35822 9.12465C7.17407 9.27915 7.08181 9.44407 7.08829 9.67023C7.09968 10.0679 7.09255 10.4661 7.09109 10.8641C7.09036 11.0613 7.14961 11.2324 7.36054 11.3277C7.56843 11.4217 7.75967 11.3769 7.94196 11.2584C8.18754 11.0987 8.4387 10.9458 8.66217 10.8059C8.84712 10.9669 9.02355 11.1156 9.19155 11.2715C9.22034 11.2982 9.22317 11.3559 9.22104 11.3986C9.20744 11.6709 9.3225 11.8664 9.64259 11.9494C9.19487 12.4715 9.23698 13.0293 9.4976 13.5798C9.65949 13.9217 9.87825 14.246 10.106 14.5584C10.293 14.8148 10.6868 14.8259 10.8878 14.589C11.2612 14.1491 11.5563 13.6711 11.675 13.1209C11.7659 12.6992 11.6984 12.3072 11.3832 11.9522C11.7136 11.8625 11.8252 11.6592 11.8053 11.3807C11.8026 11.344 11.8098 11.2948 11.8354 11.2704C11.9968 11.1167 12.1647 10.9684 12.3489 10.8016C12.5682 10.9386 12.8178 11.0893 13.0609 11.2478C13.2468 11.3691 13.4421 11.4314 13.6571 11.3282C13.8682 11.2269 13.9315 11.0516 13.9293 10.8462C13.9247 10.431 13.9246 10.0157 13.9294 9.60044C13.9315 9.42027 13.8756 9.25812 13.7044 9.16481C13.2737 8.93009 13.0951 8.60934 13.1875 8.16127C13.2135 8.03515 13.1744 7.89843 13.1637 7.74609C13.247 7.78981 13.3206 7.82366 13.3886 7.8649C14.0967 8.29442 14.5366 8.88253 14.7172 9.62803C14.7334 9.69517 14.7946 9.77544 14.8608 9.8081C16.1609 10.4495 16.7539 11.6574 16.3984 12.9792Z" fill="white"/>
<path d="M9.08709 10.2134C9.04899 10.1526 9.01917 10.1024 8.97133 10.0219C9.23083 10.0219 9.46546 10.022 9.7001 10.0219C9.76494 10.0219 9.84162 10.0408 9.8918 10.0166C9.96505 9.98125 10.0193 9.91472 10.0816 9.86147C10.0174 9.81071 9.95646 9.72042 9.88863 9.71614C9.61764 9.69908 9.34452 9.70867 9.0722 9.70856C8.76661 9.70844 8.7489 9.69394 8.7105 9.39649C9.24947 9.39649 9.78658 9.39653 10.3237 9.39644C10.3885 9.39643 10.4658 9.4155 10.5152 9.39079C10.5877 9.35458 10.6777 9.29382 10.6925 9.23092C10.7169 9.1273 10.6181 9.08354 10.5064 9.08328C10.1887 9.08253 9.87095 9.08272 9.55324 9.08263C9.27442 9.08255 8.99534 9.08824 8.71703 9.07767C8.66323 9.07562 8.57526 9.01653 8.56585 8.97303C8.39247 8.17152 8.52337 7.40619 8.9354 6.65652C9.98253 7.10728 11.0307 7.11242 12.0825 6.65625C12.424 7.26772 12.5701 7.9027 12.5156 8.57126C12.4545 9.32065 12.1492 9.99097 11.645 10.5897C11.6005 10.6426 11.502 10.6873 11.4277 10.6882C10.8185 10.6961 10.2089 10.6966 9.59969 10.6879C9.51986 10.6867 9.41995 10.6368 9.36653 10.5813C9.26224 10.4728 9.18426 10.3443 9.08709 10.2134ZM11.2853 7.97855C11.2056 7.54369 10.7952 7.27946 10.3372 7.36811C9.90947 7.45091 9.64603 7.85138 9.76706 8.23485C9.86834 8.55575 10.2318 8.76991 10.6006 8.72603C11.0135 8.67691 11.276 8.40246 11.2853 7.97855Z" fill="white"/>
<path d="M11.3162 6.59745C10.5422 6.77075 9.81447 6.70192 9.10645 6.38307C9.46969 5.8381 9.94547 5.39735 10.5068 5C11.0707 5.37584 11.5365 5.82905 11.9271 6.39289C11.7208 6.46275 11.5263 6.52864 11.3162 6.59745Z" fill="white"/>
<path d="M10.9348 13.3158C10.8045 13.5601 10.6778 13.7913 10.5266 14.067C10.1997 13.5942 9.9076 13.1656 10.0011 12.6262C10.0429 12.3849 10.2544 12.217 10.4942 12.2093C10.7489 12.2011 10.948 12.3548 11.0195 12.6107C11.0864 12.8505 11.023 13.0773 10.9348 13.3158Z" fill="white"/>
<path d="M13.2587 9.79717C13.2587 10.0766 13.2587 10.34 13.2587 10.6464C12.9634 10.4617 12.7001 10.3007 12.4441 10.1308C12.4196 10.1146 12.4279 10.0386 12.4443 9.99781C12.5446 9.74917 12.6516 9.50269 12.7666 9.23145C12.9215 9.42145 13.275 9.45891 13.2587 9.79717Z" fill="white"/>
<path d="M8.31556 9.37877C8.41436 9.62968 8.50883 9.86732 8.60793 10.1166C8.34211 10.2832 8.07318 10.4517 7.76793 10.643C7.76793 10.2888 7.76232 9.96431 7.77415 9.64032C7.77587 9.59315 7.85678 9.54424 7.9083 9.50336C8.01828 9.41609 8.13301 9.33356 8.25761 9.24023C8.28083 9.29446 8.29603 9.32998 8.31556 9.37877Z" fill="white"/>
<path d="M10.776 10.999C10.8981 10.999 11.0009 10.999 11.1183 10.999C11.1183 11.1129 11.1183 11.2189 11.1183 11.3391C10.7289 11.3391 10.3319 11.3391 9.91895 11.3391C9.91895 11.2325 9.91895 11.1222 9.91895 10.999C10.2025 10.999 10.4796 10.999 10.776 10.999Z" fill="white"/>
<path d="M11.2857 7.99314C11.2757 8.40198 11.0133 8.67643 10.6004 8.72555C10.2315 8.76943 9.86808 8.55528 9.7668 8.23438C9.64577 7.8509 9.90922 7.45043 10.337 7.36763C10.795 7.27899 11.2053 7.54322 11.2857 7.99314ZM10.9302 7.92296C10.8245 7.72959 10.6714 7.63096 10.4846 7.64851C10.3024 7.66562 10.1706 7.74924 10.1067 7.90705C10.0418 8.06719 10.093 8.20444 10.2246 8.31627C10.3608 8.43197 10.5254 8.44483 10.6943 8.38028C10.8753 8.31107 10.9486 8.17411 10.9302 7.92296Z" fill="white"/>
<path d="M10.9333 7.93698C10.9491 8.17408 10.8758 8.31103 10.6948 8.38024C10.5259 8.4448 10.3612 8.43194 10.2251 8.31624C10.0935 8.20441 10.0422 8.06716 10.1071 7.90702C10.1711 7.7492 10.3029 7.66559 10.485 7.64848C10.6719 7.63093 10.825 7.72956 10.9333 7.93698Z" fill="white"/>
<defs>
<linearGradient id="paint0_linear_54_27089" x1="0.5" y1="10" x2="20.5" y2="10" gradientUnits="userSpaceOnUse">
<stop stop-color="#FB3F52"/>
<stop offset="1" stop-color="#FA7D3C"/>
</linearGradient>
</defs>
</svg>
