<svg width="20" height="20" viewBox="0 0 20 20" fill="none" xmlns="http://www.w3.org/2000/svg">
<circle cx="10" cy="10" r="10" fill="white"/>
<path d="M15.8984 12.9797C15.5435 14.1115 14.4389 14.9202 13.1374 14.9821C12.5421 15.0105 11.9441 14.9969 11.3473 14.9976C9.96537 14.9993 8.58339 15.0017 7.20145 14.9972C5.69332 14.9923 4.49957 14.2061 4.11072 12.9711C3.76533 11.8742 4.24716 10.6756 5.28943 10.0169C5.37678 9.96175 5.45057 9.87077 5.49368 9.78219C5.73841 9.27938 6.07434 8.84105 6.60162 8.54302C6.75682 8.4553 6.93906 8.39955 7.11665 8.35197C7.18256 8.33432 7.30101 8.3612 7.34001 8.40597C7.37838 8.45002 7.37811 8.56284 7.3397 8.6101C7.19275 8.79093 7.03983 8.97279 6.85822 9.12514C6.67407 9.27963 6.58181 9.44456 6.58829 9.67072C6.59968 10.0684 6.59255 10.4666 6.59109 10.8646C6.59036 11.0618 6.64961 11.2329 6.86054 11.3282C7.06843 11.4222 7.25967 11.3774 7.44196 11.2589C7.68754 11.0992 7.9387 10.9463 8.16217 10.8064C8.34712 10.9674 8.52355 11.1161 8.69155 11.272C8.72034 11.2987 8.72317 11.3564 8.72104 11.3991C8.70744 11.6714 8.8225 11.8669 9.14259 11.9498C8.69487 12.472 8.73698 13.0298 8.9976 13.5802C9.15949 13.9221 9.37825 14.2465 9.606 14.5589C9.79299 14.8153 10.1868 14.8264 10.3878 14.5895C10.7612 14.1496 11.0563 13.6716 11.175 13.1213C11.2659 12.6997 11.1984 12.3077 10.8832 11.9527C11.2136 11.863 11.3252 11.6597 11.3053 11.3812C11.3026 11.3445 11.3098 11.2953 11.3354 11.2709C11.4968 11.1172 11.6647 10.9689 11.8489 10.8021C12.0682 10.9391 12.3178 11.0897 12.5609 11.2483C12.7468 11.3696 12.9421 11.4319 13.1571 11.3287C13.3682 11.2274 13.4315 11.0521 13.4293 10.8467C13.4247 10.4315 13.4246 10.0162 13.4294 9.60093C13.4315 9.42075 13.3756 9.25861 13.2044 9.1653C12.7737 8.93058 12.5951 8.60982 12.6875 8.16175C12.7135 8.03563 12.6744 7.89891 12.6637 7.74658C12.747 7.7903 12.8206 7.82415 12.8886 7.86538C13.5967 8.29491 14.0366 8.88302 14.2172 9.62852C14.2334 9.69566 14.2946 9.77592 14.3608 9.80858C15.6609 10.45 16.2539 11.6578 15.8984 12.9797Z" fill="url(#paint0_linear_571_12187)"/>
<path d="M8.58734 10.2129C8.54923 10.1521 8.51941 10.1019 8.47157 10.0215C8.73107 10.0215 8.96571 10.0215 9.20035 10.0214C9.26518 10.0214 9.34187 10.0404 9.39205 10.0161C9.46529 9.98076 9.51949 9.91423 9.58181 9.86099C9.51768 9.81022 9.4567 9.71993 9.38887 9.71565C9.11788 9.69859 8.84477 9.70818 8.57244 9.70807C8.26685 9.70795 8.24915 9.69345 8.21074 9.396C8.74971 9.396 9.28683 9.39604 9.82394 9.39596C9.88877 9.39595 9.96608 9.41501 10.0155 9.3903C10.0879 9.35409 10.178 9.29333 10.1928 9.23043C10.2172 9.12682 10.1184 9.08305 10.0066 9.08279C9.68892 9.08204 9.3712 9.08223 9.05348 9.08214C8.77467 9.08206 8.49558 9.08776 8.21727 9.07718C8.16348 9.07513 8.07551 9.01605 8.0661 8.97254C7.89271 8.17103 8.02362 7.4057 8.43564 6.65604C9.48277 7.10679 10.5309 7.11193 11.5828 6.65576C11.9242 7.26723 12.0704 7.90221 12.0159 8.57077C11.9548 9.32016 11.6494 9.99048 11.1453 10.5892C11.1008 10.6421 11.0022 10.6868 10.928 10.6877C10.3187 10.6956 9.70918 10.6961 9.09993 10.6874C9.0201 10.6863 8.92019 10.6363 8.86677 10.5808C8.76249 10.4723 8.6845 10.3438 8.58734 10.2129ZM10.7855 7.97806C10.7058 7.5432 10.2955 7.27897 9.83748 7.36762C9.40972 7.45042 9.14627 7.85089 9.2673 8.23436C9.36858 8.55526 9.73203 8.76942 10.1009 8.72554C10.5138 8.67642 10.7762 8.40197 10.7855 7.97806Z" fill="url(#paint1_linear_571_12187)"/>
<path d="M10.8157 6.59745C10.0417 6.77075 9.31398 6.70192 8.60596 6.38307C8.96921 5.8381 9.44498 5.39735 10.0063 5C10.5702 5.37584 11.036 5.82905 11.4266 6.39289C11.2203 6.46275 11.0258 6.52864 10.8157 6.59745Z" fill="url(#paint2_linear_571_12187)"/>
<path d="M10.4346 13.3158C10.3042 13.5601 10.1775 13.7913 10.0263 14.067C9.69944 13.5942 9.40736 13.1656 9.50084 12.6262C9.54265 12.3849 9.75414 12.217 9.99399 12.2093C10.2486 12.2011 10.4478 12.3548 10.5192 12.6107C10.5862 12.8505 10.5228 13.0773 10.4346 13.3158Z" fill="url(#paint3_linear_571_12187)"/>
<path d="M12.7587 9.79717C12.7587 10.0766 12.7587 10.34 12.7587 10.6464C12.4634 10.4617 12.2001 10.3007 11.9441 10.1308C11.9196 10.1146 11.9279 10.0386 11.9443 9.99781C12.0446 9.74917 12.1516 9.50269 12.2666 9.23145C12.4215 9.42145 12.775 9.45891 12.7587 9.79717Z" fill="url(#paint4_linear_571_12187)"/>
<path d="M7.81593 9.37877C7.91473 9.62968 8.0092 9.86732 8.10829 10.1166C7.84248 10.2832 7.57354 10.4517 7.2683 10.643C7.2683 10.2888 7.26268 9.96431 7.27451 9.64032C7.27624 9.59315 7.35715 9.54424 7.40867 9.50336C7.51865 9.41609 7.63338 9.33356 7.75798 9.24023C7.78119 9.29446 7.7964 9.32998 7.81593 9.37877Z" fill="url(#paint5_linear_571_12187)"/>
<path d="M10.2764 10.999C10.3985 10.999 10.5013 10.999 10.6187 10.999C10.6187 11.1129 10.6187 11.2189 10.6187 11.3391C10.2292 11.3391 9.83227 11.3391 9.41931 11.3391C9.41931 11.2325 9.41931 11.1222 9.41931 10.999C9.70283 10.999 9.98 10.999 10.2764 10.999Z" fill="url(#paint6_linear_571_12187)"/>
<path d="M10.7862 7.99314C10.7762 8.40198 10.5137 8.67643 10.1009 8.72555C9.73202 8.76943 9.36857 8.55528 9.26729 8.23438C9.14626 7.8509 9.40971 7.45043 9.83747 7.36763C10.2954 7.27899 10.7058 7.54322 10.7862 7.99314ZM10.4307 7.92296C10.325 7.72959 10.1719 7.63096 9.98506 7.64851C9.80286 7.66562 9.67112 7.74924 9.60715 7.90705C9.54224 8.06719 9.59349 8.20444 9.7251 8.31627C9.86126 8.43197 10.0259 8.44483 10.1948 8.38028C10.3758 8.31107 10.4491 8.17411 10.4307 7.92296Z" fill="url(#paint7_linear_571_12187)"/>
<path d="M10.4333 7.93698C10.4491 8.17408 10.3758 8.31103 10.1948 8.38024C10.0259 8.4448 9.86125 8.43194 9.72509 8.31624C9.59348 8.20441 9.54223 8.06716 9.60714 7.90702C9.67111 7.7492 9.80285 7.66559 9.98504 7.64848C10.1719 7.63093 10.325 7.72956 10.4333 7.93698Z" fill="url(#paint8_linear_571_12187)"/>
<defs>
<linearGradient id="paint0_linear_571_12187" x1="4" y1="11.3734" x2="16" y2="11.3734" gradientUnits="userSpaceOnUse">
<stop stop-color="#3B32F6"/>
<stop offset="1" stop-color="#49A6FF"/>
</linearGradient>
<linearGradient id="paint1_linear_571_12187" x1="7.99146" y1="8.67477" x2="12.027" y2="8.67477" gradientUnits="userSpaceOnUse">
<stop stop-color="#3B32F6"/>
<stop offset="1" stop-color="#49A6FF"/>
</linearGradient>
<linearGradient id="paint2_linear_571_12187" x1="8.60596" y1="5.84506" x2="11.4266" y2="5.84506" gradientUnits="userSpaceOnUse">
<stop stop-color="#3B32F6"/>
<stop offset="1" stop-color="#49A6FF"/>
</linearGradient>
<linearGradient id="paint3_linear_571_12187" x1="9.48315" y1="13.138" x2="10.5471" y2="13.138" gradientUnits="userSpaceOnUse">
<stop stop-color="#3B32F6"/>
<stop offset="1" stop-color="#49A6FF"/>
</linearGradient>
<linearGradient id="paint4_linear_571_12187" x1="11.9287" y1="9.93895" x2="12.7593" y2="9.93895" gradientUnits="userSpaceOnUse">
<stop stop-color="#3B32F6"/>
<stop offset="1" stop-color="#49A6FF"/>
</linearGradient>
<linearGradient id="paint5_linear_571_12187" x1="7.26697" y1="9.94161" x2="8.10829" y2="9.94161" gradientUnits="userSpaceOnUse">
<stop stop-color="#3B32F6"/>
<stop offset="1" stop-color="#49A6FF"/>
</linearGradient>
<linearGradient id="paint6_linear_571_12187" x1="9.41931" y1="11.1691" x2="10.6187" y2="11.1691" gradientUnits="userSpaceOnUse">
<stop stop-color="#3B32F6"/>
<stop offset="1" stop-color="#49A6FF"/>
</linearGradient>
<linearGradient id="paint7_linear_571_12187" x1="9.23779" y1="8.04092" x2="10.7862" y2="8.04092" gradientUnits="userSpaceOnUse">
<stop stop-color="#3B32F6"/>
<stop offset="1" stop-color="#49A6FF"/>
</linearGradient>
<linearGradient id="paint8_linear_571_12187" x1="9.5791" y1="8.03271" x2="10.4354" y2="8.03271" gradientUnits="userSpaceOnUse">
<stop stop-color="#3B32F6"/>
<stop offset="1" stop-color="#49A6FF"/>
</linearGradient>
</defs>
</svg>
