<svg width="60" height="60" viewBox="0 0 60 60" fill="none" xmlns="http://www.w3.org/2000/svg">
<path d="M30.143 4.375C35.6198 4.37498 39.9215 4.37495 43.28 4.82648C46.7215 5.2892 49.4523 6.2568 51.5978 8.40228C53.7433 10.5478 54.7108 13.2784 55.1735 16.7201C55.625 20.0786 55.625 24.3803 55.625 29.857V30.143C55.625 35.6198 55.625 39.9215 55.1735 43.28C54.7108 46.7215 53.7433 49.4523 51.5978 51.5978C49.4523 53.7433 46.7215 54.7108 43.28 55.1735C39.9215 55.625 35.6198 55.625 30.143 55.625H29.857C24.3804 55.625 20.0786 55.625 16.7201 55.1735C13.2784 54.7108 10.5478 53.7433 8.40228 51.5978C6.2568 49.4523 5.2892 46.7215 4.82648 43.28C4.37495 39.9215 4.37498 35.6198 4.375 30.143V29.857C4.37498 24.3803 4.37495 20.0786 4.82648 16.7201C5.2892 13.2784 6.2568 10.5478 8.40228 8.40228C10.5478 6.2568 13.2784 5.2892 16.7201 4.82648C20.0786 4.37495 24.3803 4.37498 29.857 4.375H30.143Z" fill="white" fill-opacity="0.3"/>
<path fill-rule="evenodd" clip-rule="evenodd" d="M43.7347 21.089C44.514 21.7709 44.593 22.9554 43.911 23.7347L35.489 33.3598C36.359 34.5115 36.875 35.9455 36.875 37.5C36.875 41.297 33.797 44.375 30 44.375C26.203 44.375 23.125 41.297 23.125 37.5C23.125 33.703 26.203 30.625 30 30.625C30.879 30.625 31.7192 30.79 32.4917 31.0905L41.089 21.2653C41.7707 20.486 42.9555 20.4071 43.7347 21.089ZM16.875 30C16.875 22.7513 22.7512 16.875 30 16.875C32.3937 16.875 34.6325 17.5141 36.5612 18.6298C37.4575 19.1483 38.6045 18.8419 39.123 17.9456C39.6415 17.0492 39.3352 15.9023 38.4387 15.3837C35.9547 13.9468 33.0705 13.125 30 13.125C20.6802 13.125 13.125 20.6802 13.125 30C13.125 31.0355 13.9645 31.875 15 31.875C16.0355 31.875 16.875 31.0355 16.875 30Z" fill="white"/>
</svg>
