<svg width="60" height="61" viewBox="0 0 60 61" fill="none" xmlns="http://www.w3.org/2000/svg">
<path opacity="0.4" d="M20.0367 5.81262C20.4448 5.63457 21.0442 5.4289 21.7552 5.5241C22.5281 5.6276 23.1011 6.06872 23.4305 6.34412C23.7803 6.63657 24.6601 7.50912 24.6601 7.50912C26.1178 8.9545 28.0588 9.67745 30 9.678C31.9413 9.67745 33.8823 8.9545 35.34 7.50912C35.34 7.50912 36.2198 6.63657 36.5695 6.34412C36.899 6.06872 37.472 5.6276 38.2448 5.5241C38.9558 5.4289 39.5553 5.63457 39.9633 5.81262C40.3385 5.97632 40.7615 6.2153 41.1723 6.4471L46.795 9.66837C47.1595 9.92625 47.6523 10.3368 47.935 11.0011C48.2435 11.7263 48.144 12.4572 48.0708 12.88C47.9913 13.3375 47.8268 13.9674 47.6693 14.5701C46.6785 18.3622 49.0983 22.4415 53.0155 23.4913L53.0845 23.5098C53.6773 23.6685 54.2325 23.8173 54.6668 23.9739C55.0733 24.1204 55.7523 24.3954 56.2308 25.0162C56.6705 25.5867 56.787 26.212 56.833 26.6545C56.8753 27.0627 56.875 27.551 56.875 28.0262V32.974C56.875 33.4492 56.8753 33.9375 56.833 34.3455C56.787 34.7882 56.6705 35.4135 56.2308 35.984C55.7523 36.6047 55.0733 36.8797 54.667 37.0262C54.2328 37.1827 53.0158 37.509 53.0158 37.509C49.1 38.5585 46.6818 42.6373 47.673 46.4298C47.673 46.4298 47.9953 47.6622 48.0745 48.1197C48.148 48.5425 48.2475 49.2735 47.939 49.9987C47.6563 50.663 47.1638 51.0737 46.799 51.3315L41.1763 54.5527C40.7658 54.7845 40.3423 55.0238 39.9673 55.1875C39.559 55.3655 38.9595 55.5713 38.2485 55.476C37.4755 55.3722 36.9028 54.9313 36.5733 54.6558C36.2235 54.3633 35.3438 53.4905 35.3438 53.4905C33.8853 52.044 31.9428 51.3203 30 51.3197C28.0573 51.3203 26.1148 52.044 24.6562 53.4905C24.6562 53.4905 23.7766 54.3633 23.4268 54.6558C23.0974 54.9313 22.5244 55.3722 21.7515 55.476C21.0405 55.5713 20.441 55.3655 20.0329 55.1875C19.6578 55.0238 19.2345 54.7848 18.8241 54.553L13.2009 51.3315C12.8363 51.0737 12.3437 50.663 12.061 49.9987C11.7524 49.2735 11.8521 48.5425 11.9254 48.1197C12.0048 47.6622 12.3271 46.4298 12.3271 46.4298C13.3183 42.6373 10.9001 38.5585 6.98436 37.509C6.98436 37.509 5.76736 37.1827 5.33306 37.0262C4.92678 36.8797 4.24773 36.6047 3.76926 35.984C3.32953 35.4135 3.21298 34.7882 3.16711 34.3455C3.12481 33.9375 3.12491 33.4492 3.12501 32.974V28.0262C3.12491 27.551 3.12481 27.0627 3.16711 26.6545C3.21298 26.212 3.32956 25.5867 3.76931 25.0162C4.24781 24.3954 4.92686 24.1204 5.33318 23.9739C5.76748 23.8173 6.32281 23.6685 6.91546 23.5098L6.98446 23.4913C10.9016 22.4415 13.3214 18.3622 12.3308 14.5701C12.1733 13.9674 12.0087 13.3375 11.9294 12.88C11.856 12.4572 11.7565 11.7263 12.0651 11.0011C12.3478 10.3368 12.8404 9.92625 13.2049 9.66837L18.8278 6.4471C19.2384 6.2153 19.6616 5.97632 20.0367 5.81262Z" fill="white"/>
<path d="M30 22.375C25.5127 22.375 21.875 26.0128 21.875 30.5C21.875 31.0498 21.938 31.6282 22.041 32.1445L23.6742 30.512C24.4064 29.7797 25.5935 29.7797 26.3257 30.512C27.058 31.2442 27.058 32.4315 26.3257 33.1638L24.9655 34.524C24.4997 34.9905 23.8933 35.5977 23.3794 35.9452C22.7159 36.3942 21.8157 36.7265 20.7507 36.404C19.7829 36.1108 19.191 35.4545 18.856 34.6957C18.6162 34.1528 18.4615 33.373 18.3548 32.835C18.2039 32.0785 18.125 31.2975 18.125 30.5C18.125 23.9416 23.4416 18.625 30 18.625C31.5712 18.625 33.0757 18.9312 34.4535 19.4889C35.4135 19.8774 35.8765 20.9706 35.488 21.9304C35.0995 22.8903 34.0062 23.3534 33.0465 22.9649C32.1082 22.5851 31.081 22.375 30 22.375Z" fill="white"/>
<path d="M37.9985 29.0591L36.4812 30.5756C35.749 31.3078 34.562 31.3078 33.8297 30.5756C33.0975 29.8433 33.0975 28.6563 33.8297 27.9241L35.166 26.5876C35.6395 26.1136 36.168 25.5843 36.688 25.2333C37.3602 24.7797 38.2737 24.4464 39.349 24.7864C39.7745 24.9209 40.1847 25.1451 40.5375 25.4914C40.8807 25.8283 41.094 26.2071 41.2347 26.5468C41.4647 27.1011 41.6025 27.8948 41.6977 28.4438C41.8147 29.1131 41.8755 29.8001 41.8755 30.4998C41.8755 37.0583 36.559 42.3748 30.0005 42.3748C28.4292 42.3748 26.9247 42.0686 25.547 41.5108C24.5871 41.1223 24.1239 40.0293 24.5125 39.0693C24.901 38.1096 25.9942 37.6463 26.954 38.0348C27.8922 38.4148 28.9195 38.6248 30.0005 38.6248C34.4877 38.6248 38.1255 34.9871 38.1255 30.4998C38.1255 30.0173 38.0782 29.5158 37.9985 29.0591Z" fill="white"/>
</svg>
