<svg width="60" height="61" viewBox="0 0 60 61" fill="none" xmlns="http://www.w3.org/2000/svg">
<path d="M35.3048 6.56224L33.6473 4.27521C33.4165 3.95676 33.3013 3.79756 33.1253 3.71536C32.9495 3.63319 32.763 3.64614 32.39 3.67206C28.1408 3.96729 24.2688 5.63341 21.213 8.23141C21.0516 8.36861 21.1505 8.61834 21.362 8.63079C23.8136 8.77511 25.1183 10.1372 26.5473 11.6479C28.756 13.9831 30.4928 13.79 31.307 13.3596C31.6398 13.1837 31.701 13.0593 31.722 13.0164L31.7235 13.0133C31.79 12.8791 31.8178 12.7356 31.9168 12.1923C31.9995 11.7383 32.1433 10.959 32.6413 10.2065C33.168 9.41069 33.9543 8.83054 34.991 8.41949C35.4233 8.24814 35.5563 8.00824 35.6043 7.78204C35.664 7.50016 35.6158 7.05161 35.3048 6.56224Z" fill="white"/>
<path d="M37.6784 41.3857C37.9657 41.6262 38.1092 41.7467 38.2907 41.7857C38.4722 41.8247 38.6434 41.7767 38.9862 41.6809C45.1577 39.9522 50.0844 35.2427 52.1179 29.2019C52.3847 28.4092 52.5182 28.0129 52.2937 27.7004C52.0692 27.3882 51.6279 27.3882 50.7454 27.3882H50.0019C48.7524 27.3882 48.0684 27.8492 47.0652 28.5399L47.0294 28.5644C45.9919 29.2787 44.4769 30.3219 42.1342 29.8532C39.0469 29.2354 37.5707 29.3997 36.9342 29.6939C36.6969 29.8037 36.6017 29.9194 36.5344 30.0549C36.4452 30.2349 36.3559 30.5637 36.3559 31.1429L36.3562 31.3609C36.3567 32.6389 36.3572 33.6047 36.1379 34.4854C35.9097 35.4019 35.4559 36.1812 34.8974 37.1407L34.8019 37.3044C34.4394 37.9284 34.3702 38.2739 34.3774 38.4347C34.3799 38.4889 34.3907 38.5352 34.4282 38.5997C34.4717 38.6739 34.5802 38.8192 34.8417 39.0132C34.8717 39.0352 34.9009 39.0582 34.9292 39.0822L37.6784 41.3857Z" fill="white"/>
<path opacity="0.4" d="M38.852 5.28682C38.608 4.75552 38.486 4.48987 38.593 4.368C38.6997 4.24615 38.956 4.3252 39.4685 4.48335C47.3775 6.92435 53.125 14.2961 53.125 23.0109C53.125 23.3595 52.8382 23.6363 52.4897 23.6363H50C47.5665 23.6363 46.058 24.6765 45.0222 25.3907L44.9377 25.4488C43.9347 26.1392 43.5825 26.3172 42.8678 26.174C39.705 25.5412 37.171 25.4505 35.3592 26.2882C34.3727 26.7442 33.6345 27.4592 33.1742 28.3852C32.7362 29.2672 32.604 30.2312 32.604 31.1432C32.604 32.7375 32.5905 33.2037 32.4973 33.5782C32.4135 33.9147 32.256 34.218 31.5585 35.4185C31.0755 36.2492 30.574 37.3587 30.6293 38.6012C30.6893 39.9582 31.3875 41.1065 32.5588 41.9917C32.7115 42.1198 32.6147 42.365 32.416 42.3515C22.3378 41.6657 14.375 33.2687 14.375 23.0109C14.375 19.5681 15.272 16.3349 16.8449 13.5325C17.148 12.9924 17.2995 12.7224 17.5921 12.5511C17.8846 12.3799 18.2213 12.3799 18.8948 12.3799H21.1901C21.9763 12.4354 22.3758 12.6984 23.8219 14.2273C26.8612 17.4404 30.3725 18.0964 33.057 16.6774C34.028 16.1642 34.6805 15.4894 35.0817 14.6797C35.4005 14.0363 35.5177 13.3612 35.5837 12.9813L35.6042 12.8653C35.6833 12.4317 35.7295 12.3337 35.7663 12.2782C35.7783 12.2596 35.8792 12.1027 36.3705 11.908C37.9455 11.2836 38.956 10.0428 39.2705 8.562C39.5105 7.432 39.3195 6.30482 38.852 5.28682Z" fill="white"/>
<path fill-rule="evenodd" clip-rule="evenodd" d="M18.0425 3.7573C19.0049 4.74725 18.9827 6.33002 17.9927 7.29247C13.8261 11.3434 11.25 16.9763 11.25 23.2063C11.25 35.4992 21.304 45.5 33.75 45.5C39.8898 45.5 45.4478 43.0667 49.5073 39.12C50.4972 38.1575 52.08 38.18 53.0425 39.1698C54.005 40.1598 53.9827 41.7425 52.9927 42.705C48.0335 47.5265 41.2375 50.5 33.75 50.5V53H36.25C37.6308 53 38.75 54.1193 38.75 55.5C38.75 56.8807 37.6308 58 36.25 58H26.25C24.8693 58 23.75 56.8807 23.75 55.5C23.75 54.1193 24.8693 53 26.25 53H28.75V50.0498C15.9622 47.7173 6.25 36.601 6.25 23.2063C6.25 15.5647 9.41707 8.65637 14.5073 3.70752C15.4972 2.74505 17.08 2.76734 18.0425 3.7573Z" fill="white"/>
</svg>
