<svg width="60" height="60" viewBox="0 0 60 60" fill="none" xmlns="http://www.w3.org/2000/svg">
<g opacity="0.4">
<path d="M55.3915 24.5931C55.611 24.8111 55.613 25.1595 55.6173 25.856C55.625 27.1145 55.625 28.4467 55.625 29.857V30.143C55.625 35.6198 55.625 39.9215 55.1735 43.28C54.7108 46.7215 53.7432 49.4522 51.5977 51.5977C49.4522 53.7432 46.7215 54.7108 43.28 55.1735C39.9215 55.625 35.6198 55.625 30.143 55.625H29.857C28.4467 55.625 27.1145 55.625 25.856 55.6173C25.1595 55.613 24.8111 55.611 24.5931 55.3915C24.375 55.1723 24.375 54.8223 24.375 54.1225V25.875C24.375 25.168 24.375 24.8143 24.5947 24.5947C24.8143 24.375 25.168 24.375 25.875 24.375H54.1225C54.8223 24.375 55.1723 24.375 55.3915 24.5931Z" fill="white"/>
<path d="M19.1279 24.375C19.835 24.375 20.1886 24.375 20.4083 24.5947C20.6279 24.8143 20.6279 25.168 20.6279 25.875V53.9302C20.6279 54.6727 20.6279 55.044 20.3886 55.2665C20.1493 55.489 19.7858 55.4622 19.0588 55.4093C18.2337 55.349 17.4559 55.272 16.723 55.1735C13.2814 54.7108 10.5507 53.7432 8.4052 51.5977C6.25973 49.4522 5.29213 46.7215 4.82941 43.28C4.37788 39.9215 4.37791 35.6198 4.37793 30.143V29.857C4.37793 28.447 4.37791 27.1142 4.38561 25.856C4.38988 25.1595 4.39201 24.8111 4.61141 24.5931C4.83078 24.375 5.18063 24.375 5.88033 24.375H19.1279Z" fill="white"/>
</g>
<path fill-rule="evenodd" clip-rule="evenodd" d="M30.6279 32.4985C30.6279 31.463 31.4674 30.6235 32.5029 30.6235H42.5029C43.5384 30.6235 44.3779 31.463 44.3779 32.4985C44.3779 33.534 43.5384 34.3735 42.5029 34.3735H32.5029C31.4674 34.3735 30.6279 33.534 30.6279 32.4985Z" fill="white"/>
<path fill-rule="evenodd" clip-rule="evenodd" d="M30.6279 42.5015C30.6279 41.466 31.4674 40.6265 32.5029 40.6265H37.5029C38.5384 40.6265 39.3779 41.466 39.3779 42.5015C39.3779 43.537 38.5384 44.3765 37.5029 44.3765H32.5029C31.4674 44.3765 30.6279 43.537 30.6279 42.5015Z" fill="white"/>
<path fill-rule="evenodd" clip-rule="evenodd" d="M29.8568 4.37354H30.1428C35.6195 4.37351 39.9213 4.37349 43.2798 4.82501C46.7213 5.28774 49.452 6.25534 51.5975 8.40081C53.743 10.5463 54.7105 13.277 55.1733 16.7186C55.2718 17.4515 55.3488 18.2293 55.409 19.0544C55.462 19.7814 55.4888 20.1449 55.2663 20.3842C55.0438 20.6235 54.6725 20.6235 53.93 20.6235H6.06962C5.32714 20.6235 4.95592 20.6235 4.73342 20.3842C4.51092 20.1449 4.53744 19.7814 4.59049 19.0544C4.65072 18.2293 4.72774 17.4515 4.82627 16.7186C5.28899 13.277 6.25659 10.5463 8.40207 8.40081C10.5476 6.25534 13.2782 5.28774 16.7198 4.82501C20.0784 4.37349 24.3801 4.37351 29.8568 4.37354ZM14.998 12.4985C14.998 11.1178 16.1123 9.99854 17.4869 9.99854H17.5092C18.8838 9.99854 19.998 11.1178 19.998 12.4985C19.998 13.8793 18.8838 14.9985 17.5092 14.9985H17.4869C16.1123 14.9985 14.998 13.8793 14.998 12.4985ZM27.4868 9.99854C26.1123 9.99854 24.998 11.1178 24.998 12.4985C24.998 13.8793 26.1123 14.9985 27.4868 14.9985H27.5093C28.8838 14.9985 29.998 13.8793 29.998 12.4985C29.998 11.1178 28.8838 9.99854 27.5093 9.99854H27.4868Z" fill="white"/>
</svg>
