<svg width="20" height="20" viewBox="0 0 20 20" fill="none" xmlns="http://www.w3.org/2000/svg">
<circle cx="10" cy="10" r="10" fill="#4D32A5"/>
<path d="M15.8984 12.9794C15.5435 14.1113 14.4389 14.9199 13.1374 14.9819C12.5421 15.0102 11.9441 14.9966 11.3473 14.9974C9.96537 14.9991 8.58339 15.0014 7.20145 14.9969C5.69332 14.992 4.49957 14.2059 4.11072 12.9709C3.76533 11.874 4.24716 10.6753 5.28943 10.0167C5.37678 9.9615 5.45057 9.87052 5.49368 9.78195C5.73841 9.27914 6.07434 8.84081 6.60162 8.54278C6.75682 8.45505 6.93906 8.3993 7.11665 8.35173C7.18256 8.33407 7.30101 8.36096 7.34001 8.40573C7.37838 8.44978 7.37811 8.56259 7.3397 8.60986C7.19275 8.79068 7.03983 8.97254 6.85822 9.1249C6.67407 9.27939 6.58181 9.44431 6.58829 9.67048C6.59968 10.0682 6.59255 10.4663 6.59109 10.8643C6.59036 11.0616 6.64961 11.2327 6.86054 11.328C7.06843 11.4219 7.25967 11.3772 7.44196 11.2587C7.68754 11.099 7.9387 10.9461 8.16217 10.8061C8.34712 10.9671 8.52355 11.1158 8.69155 11.2717C8.72034 11.2984 8.72317 11.3561 8.72104 11.3988C8.70744 11.6712 8.8225 11.8667 9.14259 11.9496C8.69487 12.4717 8.73698 13.0296 8.9976 13.58C9.15949 13.9219 9.37825 14.2463 9.606 14.5586C9.79299 14.8151 10.1868 14.8261 10.3878 14.5892C10.7612 14.1493 11.0563 13.6714 11.175 13.1211C11.2659 12.6995 11.1984 12.3075 10.8832 11.9525C11.2136 11.8628 11.3252 11.6594 11.3053 11.381C11.3026 11.3443 11.3098 11.2951 11.3354 11.2707C11.4968 11.117 11.6647 10.9687 11.8489 10.8019C12.0682 10.9388 12.3178 11.0895 12.5609 11.2481C12.7468 11.3693 12.9421 11.4316 13.1571 11.3285C13.3682 11.2272 13.4315 11.0518 13.4293 10.8465C13.4247 10.4312 13.4246 10.0159 13.4294 9.60069C13.4315 9.42051 13.3756 9.25837 13.2044 9.16506C12.7737 8.93033 12.5951 8.60958 12.6875 8.16151C12.7135 8.03539 12.6744 7.89867 12.6637 7.74634C12.747 7.79006 12.8206 7.82391 12.8886 7.86514C13.5967 8.29466 14.0366 8.88278 14.2172 9.62828C14.2334 9.69542 14.2946 9.77568 14.3608 9.80834C15.6609 10.4497 16.2539 11.6576 15.8984 12.9794Z" fill="white"/>
<path d="M8.58807 10.2129C8.54996 10.1521 8.52015 10.1019 8.4723 10.0215C8.7318 10.0215 8.96644 10.0215 9.20108 10.0214C9.26592 10.0214 9.3426 10.0404 9.39278 10.0161C9.46602 9.98076 9.52023 9.91423 9.58255 9.86099C9.51842 9.81022 9.45744 9.71993 9.3896 9.71565C9.11862 9.69859 8.8455 9.70818 8.57317 9.70807C8.26759 9.70795 8.24988 9.69345 8.21148 9.396C8.75045 9.396 9.28756 9.39604 9.82467 9.39596C9.88951 9.39595 9.96681 9.41501 10.0162 9.3903C10.0886 9.35409 10.1787 9.29333 10.1935 9.23043C10.2179 9.12682 10.1191 9.08305 10.0074 9.08279C9.68965 9.08204 9.37193 9.08223 9.05421 9.08214C8.7754 9.08206 8.49631 9.08776 8.21801 9.07718C8.16421 9.07513 8.07624 9.01605 8.06683 8.97254C7.89344 8.17103 8.02435 7.4057 8.43637 6.65604C9.48351 7.10679 10.5317 7.11193 11.5835 6.65576C11.925 7.26723 12.0711 7.90221 12.0166 8.57077C11.9555 9.32016 11.6502 9.99048 11.146 10.5892C11.1015 10.6421 11.0029 10.6868 10.9287 10.6877C10.3194 10.6956 9.70991 10.6961 9.10066 10.6874C9.02083 10.6863 8.92092 10.6363 8.8675 10.5808C8.76322 10.4723 8.68523 10.3438 8.58807 10.2129ZM10.7863 7.97806C10.7065 7.5432 10.2962 7.27897 9.83821 7.36762C9.41045 7.45042 9.147 7.85089 9.26803 8.23436C9.36932 8.55526 9.73276 8.76942 10.1016 8.72554C10.5145 8.67642 10.777 8.40197 10.7863 7.97806Z" fill="white"/>
<path d="M10.8152 6.59745C10.0412 6.77075 9.31349 6.70192 8.60547 6.38307C8.96872 5.8381 9.44449 5.39735 10.0058 5C10.5697 5.37584 11.0355 5.82905 11.4261 6.39289C11.2199 6.46275 11.0253 6.52864 10.8152 6.59745Z" fill="white"/>
<path d="M10.4338 13.3155C10.3035 13.5599 10.1768 13.791 10.0256 14.0668C9.6987 13.594 9.40662 13.1654 9.5001 12.626C9.54192 12.3847 9.7534 12.2168 9.99326 12.2091C10.2479 12.2008 10.4471 12.3545 10.5185 12.6104C10.5854 12.8502 10.522 13.077 10.4338 13.3155Z" fill="white"/>
<path d="M12.7597 9.79717C12.7597 10.0766 12.7597 10.34 12.7597 10.6464C12.4644 10.4617 12.201 10.3007 11.9451 10.1308C11.9206 10.1146 11.9288 10.0386 11.9453 9.99781C12.0456 9.74917 12.1526 9.50269 12.2676 9.23145C12.4224 9.42145 12.776 9.45891 12.7597 9.79717Z" fill="white"/>
<path d="M7.81654 9.37853C7.91534 9.62944 8.00981 9.86708 8.1089 10.1164C7.84309 10.2829 7.57415 10.4515 7.26891 10.6427C7.26891 10.2886 7.26329 9.96407 7.27512 9.64008C7.27685 9.59291 7.35776 9.544 7.40928 9.50312C7.51926 9.41585 7.63399 9.33331 7.75859 9.23999C7.7818 9.29422 7.79701 9.32974 7.81654 9.37853Z" fill="white"/>
<path d="M10.277 10.9993C10.3991 10.9993 10.5019 10.9993 10.6193 10.9993C10.6193 11.1131 10.6193 11.2191 10.6193 11.3393C10.2298 11.3393 9.83288 11.3393 9.41992 11.3393C9.41992 11.2327 9.41992 11.1225 9.41992 10.9993C9.70344 10.9993 9.98061 10.9993 10.277 10.9993Z" fill="white"/>
<path d="M10.7867 7.99314C10.7767 8.40198 10.5142 8.67643 10.1014 8.72555C9.7325 8.76943 9.36906 8.55528 9.26778 8.23438C9.14675 7.8509 9.41019 7.45043 9.83796 7.36763C10.2959 7.27899 10.7063 7.54322 10.7867 7.99314ZM10.4311 7.92296C10.3255 7.72959 10.1724 7.63096 9.98554 7.64851C9.80335 7.66562 9.67161 7.74924 9.60764 7.90705C9.54273 8.06719 9.59398 8.20444 9.72559 8.31627C9.86175 8.43197 10.0264 8.44483 10.1953 8.38028C10.3763 8.31107 10.4495 8.17411 10.4311 7.92296Z" fill="white"/>
<path d="M10.4324 7.93722C10.4481 8.17432 10.3748 8.31128 10.1938 8.38049C10.0249 8.44504 9.86027 8.43218 9.72411 8.31649C9.5925 8.20465 9.54126 8.0674 9.60616 7.90726C9.67013 7.74945 9.80188 7.66583 9.98407 7.64872C10.1709 7.63117 10.324 7.7298 10.4324 7.93722Z" fill="white"/>
</svg>
