<svg width="89" height="90" viewBox="0 0 89 90" fill="none" xmlns="http://www.w3.org/2000/svg">
<circle cx="44.5" cy="45" r="44.5" fill="url(#paint0_linear_984_9246)"/>
<path d="M70.7603 59.1425C69.225 64.515 64.4458 68.3535 58.8153 68.6474C56.2397 68.7819 53.6526 68.7175 51.0706 68.721C45.0917 68.729 39.1127 68.7403 33.1339 68.719C26.6091 68.6956 21.4445 64.964 19.7622 59.102C18.2679 53.8952 20.3525 48.2056 24.8618 45.0794C25.2397 44.8174 25.5589 44.3855 25.7455 43.9651C26.8042 41.5784 28.2576 39.4978 30.5388 38.0832C31.2103 37.6668 31.9987 37.4021 32.7671 37.1763C33.0522 37.0925 33.5647 37.2201 33.7334 37.4326C33.8994 37.6417 33.8982 38.1772 33.732 38.4016C33.0963 39.2599 32.4347 40.1231 31.649 40.8463C30.8523 41.5796 30.4531 42.3625 30.4811 43.436C30.5304 45.3238 30.4996 47.2137 30.4933 49.1027C30.4901 50.0391 30.7464 50.8512 31.659 51.3036C32.5584 51.7496 33.3858 51.5371 34.1745 50.9745C35.2369 50.2166 36.3235 49.4909 37.2904 48.8265C38.0905 49.5908 38.8538 50.2966 39.5807 51.0365C39.7052 51.1633 39.7175 51.4372 39.7083 51.64C39.6494 52.9326 40.1472 53.8607 41.5321 54.2542C39.595 56.7327 39.7772 59.3806 40.9048 61.9932C41.6052 63.6161 42.5516 65.1557 43.5369 66.6383C44.3459 67.8556 46.0496 67.9081 46.9194 66.7837C48.5348 64.6957 49.8113 62.4269 50.3249 59.815C50.7185 57.8137 50.4265 55.9529 49.0627 54.2679C50.492 53.842 50.975 52.8768 50.8886 51.5552C50.8772 51.381 50.9084 51.1473 51.0191 51.0316C51.7175 50.302 52.4439 49.598 53.2407 48.8064C54.1895 49.4563 55.2692 50.1716 56.3208 50.9243C57.1251 51.4999 57.9703 51.7955 58.9005 51.3058C59.8136 50.8251 60.0876 49.9928 60.0779 49.0181C60.0582 47.0471 60.0578 45.0757 60.0785 43.1047C60.0874 42.2495 59.8457 41.4798 59.1049 41.0369C57.2415 39.9228 56.469 38.4003 56.8686 36.2734C56.981 35.6748 56.8119 35.0258 56.7657 34.3027C57.1261 34.5103 57.4447 34.6709 57.7387 34.8667C60.8021 36.9055 62.7055 39.697 63.4866 43.2357C63.557 43.5544 63.8215 43.9353 64.1079 44.0904C69.7327 47.1347 72.2986 52.8682 70.7603 59.1425Z" fill="#FFFEFD"/>
<path d="M39.1307 46.0114C38.9659 45.7227 38.8369 45.4846 38.6299 45.1026C39.7526 45.1026 40.7677 45.1028 41.7829 45.1024C42.0634 45.1023 42.3951 45.1923 42.6122 45.0773C42.9291 44.9094 43.1636 44.5936 43.4332 44.3408C43.1558 44.0999 42.892 43.6713 42.5985 43.651C41.4261 43.57 40.2445 43.6155 39.0663 43.615C37.7442 43.6144 37.6676 43.5456 37.5015 42.1337C39.8333 42.1337 42.157 42.1339 44.4808 42.1335C44.7613 42.1335 45.0957 42.2239 45.3095 42.1067C45.6228 41.9348 46.0124 41.6464 46.0765 41.3478C46.1821 40.856 45.7547 40.6482 45.2712 40.647C43.8966 40.6435 42.522 40.6444 41.1475 40.6439C39.9412 40.6436 38.7338 40.6706 37.5297 40.6204C37.297 40.6107 36.9164 40.3302 36.8757 40.1237C36.1255 36.3192 36.6919 32.6864 38.4744 29.128C43.0048 31.2676 47.5395 31.292 52.0901 29.1267C53.5675 32.0291 54.1998 35.0432 53.9639 38.2166C53.6996 41.7737 52.3786 44.9555 50.1974 47.7976C50.0048 48.0485 49.5784 48.2606 49.2573 48.2652C46.6213 48.3025 43.9843 48.3049 41.3484 48.2635C41.0031 48.2581 40.5708 48.0212 40.3397 47.7574C39.8885 47.2424 39.5511 46.6326 39.1307 46.0114ZM48.641 35.4032C48.2961 33.3391 46.5207 32.0849 44.5394 32.5057C42.6887 32.8987 41.5489 34.7996 42.0725 36.6198C42.5107 38.143 44.0831 39.1595 45.6789 38.9512C47.4652 38.7181 48.6007 37.4154 48.641 35.4032Z" fill="#FFFDFC"/>
<path d="M48.7713 28.8491C45.4224 29.6718 42.2741 29.3451 39.2109 27.8316C40.7825 25.2448 42.8409 23.1527 45.2694 21.2666C47.7091 23.0506 49.7243 25.2018 51.4142 27.8782C50.5218 28.2098 49.6803 28.5225 48.7713 28.8491Z" fill="#FFFDFC"/>
<path d="M47.1231 60.7372C46.5591 61.8971 46.0109 62.9943 45.3568 64.303C43.9426 62.059 42.6789 60.0244 43.0833 57.4641C43.2643 56.3187 44.1792 55.5219 45.2169 55.4851C46.3187 55.4461 47.1803 56.1756 47.4893 57.3902C47.7789 58.5286 47.5046 59.6051 47.1231 60.7372Z" fill="#FFFCFB"/>
<path d="M57.176 44.0371C57.176 45.3633 57.176 46.6136 57.176 48.0683C55.8984 47.1916 54.7589 46.4273 53.6516 45.621C53.5457 45.5438 53.5813 45.1831 53.6525 44.9895C54.0863 43.8093 54.5494 42.6393 55.0469 41.3518C55.7168 42.2537 57.2463 42.4315 57.176 44.0371Z" fill="#FFF8F6"/>
<path d="M35.792 42.0497C36.2194 43.2407 36.6282 44.3687 37.0569 45.5519C35.9069 46.3426 34.7434 47.1426 33.4228 48.0505C33.4228 46.3693 33.3985 44.829 33.4496 43.2912C33.4571 43.0673 33.8071 42.8351 34.03 42.6411C34.5059 42.2268 35.0022 41.8351 35.5413 41.3921C35.6417 41.6495 35.7075 41.8181 35.792 42.0497Z" fill="#FFFCFB"/>
<path d="M46.4366 49.7434C46.9647 49.7434 47.4096 49.7434 47.9175 49.7434C47.9175 50.2838 47.9175 50.787 47.9175 51.3576C46.2326 51.3576 44.5151 51.3576 42.7285 51.3576C42.7285 50.8515 42.7285 50.3282 42.7285 49.7434C43.9551 49.7434 45.1543 49.7434 46.4366 49.7434Z" fill="#FFFDFC"/>
<path d="M47.1167 35.2082C47.1846 36.3337 46.8678 36.9837 46.0844 37.3123C45.3538 37.6187 44.6416 37.5576 44.0525 37.0085C43.4831 36.4776 43.2614 35.8261 43.5422 35.066C43.819 34.3169 44.3889 33.92 45.1772 33.8388C45.9855 33.7555 46.648 34.2237 47.1167 35.2082Z" fill="#FFFBF9"/>
<defs>
<linearGradient id="paint0_linear_984_9246" x1="0" y1="45" x2="89" y2="45" gradientUnits="userSpaceOnUse">
<stop stop-color="#FB3F52"/>
<stop offset="1" stop-color="#FA7D3C"/>
</linearGradient>
</defs>
</svg>
