<svg width="90" height="90" viewBox="0 0 90 90" fill="none" xmlns="http://www.w3.org/2000/svg">
<circle cx="45" cy="45" r="45" fill="url(#paint0_linear_987_9240)"/>
<path d="M71.5555 59.3015C70.0029 64.7343 65.17 68.6159 59.4763 68.9132C56.8718 69.0492 54.2555 68.9841 51.6446 68.9876C45.5985 68.9957 39.5523 69.0071 33.5063 68.9855C26.9083 68.962 21.6856 65.1884 19.9844 59.2605C18.4733 53.9952 20.5813 48.2417 25.1412 45.0804C25.5234 44.8154 25.8462 44.3787 26.0349 43.9535C27.1055 41.5401 28.5752 39.4361 30.8821 38.0055C31.5611 37.5845 32.3584 37.3169 33.1354 37.0885C33.4237 37.0037 33.9419 37.1328 34.1125 37.3477C34.2804 37.5591 34.2792 38.1006 34.1112 38.3275C33.4683 39.1955 32.7993 40.0684 32.0047 40.7997C31.1991 41.5413 30.7954 42.3329 30.8237 43.4185C30.8736 45.3275 30.8424 47.2387 30.836 49.1489C30.8328 50.0958 31.092 50.917 32.0149 51.3746C32.9244 51.8255 33.7611 51.6106 34.5586 51.0417C35.633 50.2753 36.7318 49.5414 37.7095 48.8696C38.5186 49.6425 39.2905 50.3562 40.0255 51.1044C40.1515 51.2326 40.1639 51.5096 40.1545 51.7147C40.0951 53.0218 40.5984 53.9603 41.9988 54.3583C40.0401 56.8646 40.2243 59.5422 41.3645 62.1842C42.0728 63.8253 43.0299 65.3823 44.0263 66.8815C44.8443 68.1125 46.5672 68.1656 47.4467 67.0286C49.0802 64.917 50.3711 62.6227 50.8905 59.9815C51.2885 57.9577 50.9932 56.0761 49.6141 54.3721C51.0595 53.9415 51.5479 52.9654 51.4605 51.6289C51.449 51.4527 51.4805 51.2164 51.5925 51.0994C52.2987 50.3617 53.0333 49.6498 53.8391 48.8492C54.7985 49.5065 55.8904 50.2298 56.9538 50.9909C57.7671 51.573 58.6218 51.8719 59.5624 51.3768C60.4858 50.8907 60.7628 50.049 60.753 49.0633C60.7331 47.0702 60.7328 45.0766 60.7536 43.0835C60.7627 42.2186 60.5182 41.4403 59.7691 40.9925C57.8848 39.8658 57.1037 38.3262 57.5077 36.1754C57.6214 35.5701 57.4504 34.9138 57.4037 34.1826C57.7681 34.3925 58.0902 34.5549 58.3876 34.7529C61.4854 36.8146 63.4102 39.6375 64.2001 43.2159C64.2712 43.5382 64.5387 43.9235 64.8283 44.0802C70.5163 47.1588 73.111 52.9567 71.5555 59.3015Z" fill="#FFFEFD"/>
<path d="M39.5718 46.0227C39.4051 45.7307 39.2747 45.4899 39.0654 45.1036C40.2007 45.1036 41.2272 45.1039 42.2537 45.1034C42.5374 45.1033 42.8729 45.1943 43.0924 45.078C43.4129 44.9083 43.65 44.5889 43.9227 44.3333C43.6421 44.0897 43.3753 43.6562 43.0785 43.6357C41.893 43.5538 40.6981 43.5999 39.5067 43.5993C38.1697 43.5988 38.0923 43.5291 37.9242 42.1014C40.2822 42.1014 42.6321 42.1016 44.982 42.1012C45.2656 42.1011 45.6038 42.1926 45.82 42.074C46.1368 41.9002 46.5308 41.6086 46.5956 41.3067C46.7024 40.8093 46.2702 40.5992 45.7812 40.598C44.3912 40.5944 43.0012 40.5953 41.6112 40.5949C40.3914 40.5945 39.1704 40.6218 37.9528 40.571C37.7174 40.5612 37.3326 40.2776 37.2914 40.0688C36.5328 36.2215 37.1056 32.548 38.9082 28.9496C43.4894 31.1132 48.075 31.1379 52.6768 28.9482C54.1708 31.8833 54.8102 34.9312 54.5717 38.1403C54.3044 41.7374 52.9685 44.9549 50.7628 47.8289C50.5681 48.0827 50.1369 48.2972 49.8121 48.3018C47.1466 48.3394 44.4799 48.3419 41.8144 48.3001C41.4652 48.2946 41.0281 48.055 40.7943 47.7883C40.3381 47.2675 39.9969 46.6509 39.5718 46.0227ZM49.1889 35.2953C48.8402 33.208 47.0448 31.9397 45.0412 32.3652C43.1697 32.7626 42.0172 34.6849 42.5467 36.5255C42.9898 38.0659 44.5798 39.0938 46.1936 38.8832C47.9999 38.6474 49.1482 37.33 49.1889 35.2953Z" fill="#FFFDFC"/>
<path d="M49.3181 28.6677C45.9317 29.4996 42.748 29.1692 39.6504 27.6387C41.2396 25.0229 43.3211 22.9073 45.7769 21C48.244 22.8041 50.2819 24.9795 51.9908 27.6858C51.0883 28.0212 50.2373 28.3375 49.3181 28.6677Z" fill="#FFFDFC"/>
<path d="M47.6508 60.9142C47.0805 62.0871 46.5261 63.1966 45.8647 64.52C44.4345 62.2508 43.1567 60.1934 43.5656 57.6043C43.7486 56.446 44.6738 55.6402 45.7232 55.6031C46.8373 55.5636 47.7086 56.3013 48.0211 57.5296C48.3139 58.6807 48.0366 59.7693 47.6508 60.9142Z" fill="#FFFCFB"/>
<path d="M57.8188 44.0263C57.8188 45.3673 57.8188 46.6317 57.8188 48.1028C56.5269 47.2162 55.3746 46.4433 54.2549 45.6279C54.1478 45.5499 54.1838 45.1852 54.2558 44.9893C54.6945 43.7959 55.1628 42.6127 55.6658 41.3108C56.3433 42.2228 57.89 42.4026 57.8188 44.0263Z" fill="#FFF8F6"/>
<path d="M36.1947 42.0165C36.6269 43.2209 37.0402 44.3616 37.4738 45.5581C36.3108 46.3577 35.1342 47.1666 33.7988 48.0848C33.7988 46.3847 33.7742 44.8271 33.826 43.272C33.8335 43.0456 34.1875 42.8108 34.4129 42.6146C34.8941 42.1957 35.396 41.7995 35.9411 41.3516C36.0427 41.6119 36.1092 41.7823 36.1947 42.0165Z" fill="#FFFCFB"/>
<path d="M46.9607 49.7966C47.4947 49.7966 47.9447 49.7966 48.4582 49.7966C48.4582 50.3431 48.4582 50.8519 48.4582 51.4289C46.7544 51.4289 45.0176 51.4289 43.2109 51.4289C43.2109 50.9172 43.2109 50.388 43.2109 49.7966C44.4513 49.7966 45.6639 49.7966 46.9607 49.7966Z" fill="#FFFDFC"/>
<path d="M47.6475 35.0982C47.7162 36.2363 47.3958 36.8937 46.6036 37.2259C45.8648 37.5358 45.1445 37.474 44.5488 36.9187C43.9731 36.3819 43.7489 35.7231 44.0328 34.9544C44.3127 34.1969 44.8891 33.7956 45.6862 33.7134C46.5036 33.6292 47.1735 34.1026 47.6475 35.0982Z" fill="#FFFBF9"/>
<defs>
<linearGradient id="paint0_linear_987_9240" x1="2.08092" y1="44.7305" x2="90" y2="44.7305" gradientUnits="userSpaceOnUse">
<stop stop-color="#5700FC"/>
<stop offset="1" stop-color="#9553FD"/>
</linearGradient>
</defs>
</svg>
