<svg xmlns="http://www.w3.org/2000/svg" width="132.816" height="58.646" viewBox="0 0 132.816 58.646">
  <g id="Group_1074224" data-name="Group 1074224" transform="matrix(0.07, 0.998, -0.998, 0.07, 130.291, 0)">
    <path id="Path_3" data-name="Path 3" d="M17.262,56.118c.26-.414.475-.735.668-1.068a32.806,32.806,0,0,1,4.125-5.784,12.711,12.711,0,0,1,3.705-2.921,11.229,11.229,0,0,1,2.627-.975,6.323,6.323,0,0,1,7.425,4.392,7.3,7.3,0,0,1-3.042,8.552,11.914,11.914,0,0,1-3.815,1.581,18.712,18.712,0,0,1-8.672-.039c-.478-.11-.956-.224-1.516-.357a7.7,7.7,0,0,0-.456.9,40.712,40.712,0,0,0-1.564,6.174,82.926,82.926,0,0,0-1.2,9.709,53.739,53.739,0,0,0,2.3,19.188,41.659,41.659,0,0,0,7.445,13.9,86.969,86.969,0,0,0,6.912,7.736c.81.8,1.584,1.632,2.345,2.474a4.336,4.336,0,0,1,.741,1.093c.072.158-.072.48-.213.647a.563.563,0,0,1-.534.1,9.915,9.915,0,0,1-1.351-.894,53.68,53.68,0,0,1-7.56-7.305,53.014,53.014,0,0,1-6.754-9.718,51.622,51.622,0,0,1-5.3-17.812A49.287,49.287,0,0,1,13.3,75.482c.243-2.855.561-5.706.931-8.549a40.348,40.348,0,0,1,1.747-7.5c.091-.275.149-.56.24-.9-.794-.455-1.571-.87-2.317-1.333a26.238,26.238,0,0,1-8.224-8.209A35.149,35.149,0,0,1,.259,33.3a42.957,42.957,0,0,1,2.118-19A26.228,26.228,0,0,1,6.033,7.366,21.7,21.7,0,0,1,14.772.453a3.407,3.407,0,0,1,1.85-.435.473.473,0,0,1,.335.239.437.437,0,0,1-.131.376,2.759,2.759,0,0,1-.513.286A26.83,26.83,0,0,0,9.6,6.235a23.33,23.33,0,0,0-4.929,8.545A41.135,41.135,0,0,0,3.446,37.44,30.367,30.367,0,0,0,9.5,50.022a22.724,22.724,0,0,0,6.786,5.67C16.546,55.834,16.829,55.93,17.262,56.118Zm2.606.862a2.393,2.393,0,0,0,.41.268,15.6,15.6,0,0,0,9.041-.127,7,7,0,0,0,2.345-1.228,4.47,4.47,0,0,0,1.191-5.72,3.358,3.358,0,0,0-3.086-1.944,5.849,5.849,0,0,0-1.878.318,8.325,8.325,0,0,0-2.67,1.553,22.347,22.347,0,0,0-4.7,5.671C20.3,56.136,20.112,56.529,19.868,56.98Z" transform="translate(0 0)" fill="#00649e"/>
    <path id="Path_4" data-name="Path 4" d="M10.5,9.921c-.178-.632-.347-1.192-.5-1.759C9.553,6.442,9.106,4.721,8.673,3A5.679,5.679,0,0,1,8.482,1.83,2.974,2.974,0,0,1,8.615.817,1.134,1.134,0,0,1,9.733,0,1.08,1.08,0,0,1,10.82.632a36.524,36.524,0,0,1,3.013,7.55A7.186,7.186,0,0,1,14,9.65a3,3,0,0,1-2.4,3.137,7.456,7.456,0,0,1-1.165.2,25.6,25.6,0,0,1-9.105-.781A3.479,3.479,0,0,1,.278,11.7a.705.705,0,0,1-.247-.8.689.689,0,0,1,.626-.546,8.24,8.24,0,0,1,1.326-.006c1.133.083,2.263.23,3.4.279a23.809,23.809,0,0,0,2.811-.053A4.893,4.893,0,0,0,10.5,9.921Z" transform="translate(35.487 119.975)" fill="#00649e"/>
  </g>
</svg>
