<svg xmlns="http://www.w3.org/2000/svg" width="30" height="30" viewBox="0 0 38.796 38.928">
  <g id="bank" transform="translate(-1.125 -1.01)">
    <path id="Path_2924" data-name="Path 2924" d="M19.857,1.01,1.125,8.856v4.082h38.8v-4.1Zm17.477,9.678H3.711V10.27L19.9,3.491l17.439,6.8Z" fill="#ff5e5b"/>
    <path id="Path_2925" data-name="Path 2925" d="M3.375,28.688h34.3v2.25H3.375Z" transform="translate(0 5.063)" fill="#ff5e5b"/>
    <path id="Path_2926" data-name="Path 2926" d="M1.125,32.625h38.8v2.25H1.125Z" transform="translate(0 5.063)" fill="#ff5e5b"/>
    <path id="Path_2927" data-name="Path 2927" d="M3.938,15.188h2.25v11.25H3.938Z" transform="translate(0 3.174)" fill="#ff5e5b"/>
    <path id="Path_2928" data-name="Path 2928" d="M29.813,15.188h2.25v11.25h-2.25Z" transform="translate(5.046 3.174)" fill="#ff5e5b"/>
    <path id="Path_2929" data-name="Path 2929" d="M23.063,15.188h2.25v11.25h-2.25Z" transform="translate(3.514 3.174)" fill="#ff5e5b"/>
    <path id="Path_2930" data-name="Path 2930" d="M10.688,15.188h2.25v11.25h-2.25Z" transform="translate(1.532 3.174)" fill="#ff5e5b"/>
    <path id="Path_2931" data-name="Path 2931" d="M16.875,15.188h2.25v11.25h-2.25Z" transform="translate(2.523 3.174)" fill="#ff5e5b"/>
  </g>
</svg>
