<svg xmlns="http://www.w3.org/2000/svg" width="30" height="30" viewBox="0 0 48.288 45.447">
  <g id="cart" transform="translate(-4.32 -5.76)">
    <path id="Path_2932" data-name="Path 2932" d="M45.507,42.686H14.262a1.753,1.753,0,0,1-1.136-.568,1.334,1.334,0,0,1-.142-1.278l2.7-6.817L12.983,8.6H4.32V5.76h9.942a1.51,1.51,0,0,1,1.42,1.278l2.84,26.984a1.28,1.28,0,0,1-.142.71l-1.988,5.113H46.927Z" fill="#ffc107"/>
    <path id="Path_2933" data-name="Path 2933" d="M11.784,32.784l-.568-2.84,32.949-6.817V11.48H10.08V8.64H45.586a1.342,1.342,0,0,1,1.42,1.42v14.2a1.383,1.383,0,0,1-1.136,1.42l-34.086,7.1Z" transform="translate(5.602 2.801)" fill="#ffc107"/>
    <path id="Path_2934" data-name="Path 2934" d="M28.721,34.4A5.681,5.681,0,1,1,34.4,28.721,5.7,5.7,0,0,1,28.721,34.4Zm0-8.521a2.84,2.84,0,1,0,2.84,2.84A2.849,2.849,0,0,0,28.721,25.88Z" transform="translate(18.206 16.806)" fill="#ffc107"/>
    <path id="Path_2935" data-name="Path 2935" d="M11.441,34.4a5.681,5.681,0,1,1,5.681-5.681A5.7,5.7,0,0,1,11.441,34.4Zm0-8.521a2.84,2.84,0,1,0,2.84,2.84,2.849,2.849,0,0,0-2.84-2.84Z" transform="translate(1.4 16.806)" fill="#ffc107"/>
  </g>
</svg>
