<svg xmlns="http://www.w3.org/2000/svg" width="30" height="30" viewBox="0 0 45.231 32.308">
  <g id="ticket" transform="translate(-2.25 -6.75)">
    <path id="Path_2955" data-name="Path 2955" d="M45.866,19.673a1.615,1.615,0,0,0,1.615-1.615V9.981A3.231,3.231,0,0,0,44.25,6.75H5.481A3.231,3.231,0,0,0,2.25,9.981v8.077a1.615,1.615,0,0,0,1.615,1.615,3.231,3.231,0,1,1,0,6.462A1.615,1.615,0,0,0,2.25,27.75v8.077a3.231,3.231,0,0,0,3.231,3.231H44.25a3.231,3.231,0,0,0,3.231-3.231V27.75a1.615,1.615,0,0,0-1.615-1.615,3.231,3.231,0,1,1,0-6.462ZM44.25,29.156v6.671H32.942V30.981H29.712v4.846H5.481V29.156a6.462,6.462,0,0,0,0-12.5V9.981H29.712v4.846h3.231V9.981H44.25v6.671a6.462,6.462,0,0,0,0,12.5Z" transform="translate(0)" fill="#4fc391"/>
    <path id="Path_2956" data-name="Path 2956" d="M21.375,14.625h3.231v9.692H21.375Z" transform="translate(8.337 3.433)" fill="#4fc391"/>
  </g>
</svg>
