<svg xmlns="http://www.w3.org/2000/svg" width="30" height="30" viewBox="0 0 45.02 41.14">
  <g id="fastfood" transform="translate(-2.25 -2.813)">
    <path id="Path_2940" data-name="Path 2940" d="M45.153,10.575H34.075V2.813h-3.1v7.762H18.551v3.1H20.29l.6,4.657H10.012A7.77,7.77,0,0,0,2.25,26.1v1.552H29.418V26.1a7.767,7.767,0,0,0-5.353-7.377l-.646-5.042H41.625L38.142,40.848H2.25v3.1H40.874L44.756,13.68H47.27v-3.1ZM26.047,24.547H5.621a4.666,4.666,0,0,1,4.391-3.1H21.656a4.666,4.666,0,0,1,4.391,3.1Z" transform="translate(0 0)" fill="#ff5e5b"/>
    <path id="Path_2941" data-name="Path 2941" d="M28.641,25.6h.777V22.5H2.25v3.1Z" transform="translate(0 7.48)" fill="#ff5e5b"/>
    <path id="Path_2942" data-name="Path 2942" d="M28.641,29.543h.777v-3.1H2.25v3.1Z" transform="translate(0 8.976)" fill="#ff5e5b"/>
  </g>
</svg>
