<svg xmlns="http://www.w3.org/2000/svg" width="30" height="30" viewBox="0 0 61.752 45.199">
  <g id="heart" transform="translate(9.617 22.039)">
    <g id="Group_60" data-name="Group 60" transform="translate(-9.617 -22.039)">
      <path id="Path_254" data-name="Path 254" d="M60.7,78.06H55.471c2.172-4.931,1.937-8.922,1.115-11.623A13.973,13.973,0,0,0,43.379,56.4a16.513,16.513,0,0,0-5.694,1.057,29.532,29.532,0,0,0-6.574,3.287,28.182,28.182,0,0,0-6.574-3.287A16.766,16.766,0,0,0,18.843,56.4,13.973,13.973,0,0,0,5.635,66.438c-.822,2.876-1.115,7.22,1.644,12.679H.939A.939.939,0,1,0,.939,81H8.394A12.391,12.391,0,0,0,9.451,82.58c6.1,8.8,19.371,18.373,21.778,18.96v.059a.182.182,0,0,0,.117-.059h.176v-.059c2.054-1,14.792-9.216,21.484-18.96a21.6,21.6,0,0,0,1.644-2.641h6.163a.927.927,0,0,0,.939-.939A.986.986,0,0,0,60.7,78.06ZM51.3,81.523c-6.222,9.1-17.669,16.436-20.134,18.021-2.524-1.585-13.912-8.981-20.193-18.021L10.625,81h8.629a.968.968,0,0,0,.88-.528l3.933-7.748,6.163,15.79a.961.961,0,0,0,.88.587h.059a.935.935,0,0,0,.88-.7l5.4-18.49,2.876,9.333a.957.957,0,0,0,.763.646,1.016,1.016,0,0,0,.939-.411l2.289-3.346,1.937,3.287a.937.937,0,0,0,.822.47H52.36C52.008,80.467,51.656,81,51.3,81.523Zm2.113-3.463H47.664l-2.407-4.109a.937.937,0,0,0-.822-.47.888.888,0,0,0-.822.411l-2,2.935L38.39,66.32a1.089,1.089,0,0,0-.939-.7,1,1,0,0,0-.939.7L31.052,85.163,25.123,70.018a.883.883,0,0,0-.822-.587.91.91,0,0,0-.88.528l-4.637,9.1H9.451C7.1,74.773,6.457,70.664,7.514,66.966A11.992,11.992,0,0,1,18.9,58.337a15.615,15.615,0,0,1,5.048.939,28.537,28.537,0,0,1,6.633,3.4.893.893,0,0,0,1.174,0,25.591,25.591,0,0,1,6.633-3.4,14.191,14.191,0,0,1,5.048-.939,12.05,12.05,0,0,1,11.388,8.629C55.823,70.371,55.3,74.127,53.417,78.06Z" transform="translate(0 -56.4)" fill="#1c77c3"/>
    </g>
  </g>
</svg>
