<svg xmlns="http://www.w3.org/2000/svg" width="30" height="30" viewBox="0 0 45.916 39.794">
  <path id="truck" d="M41.865,12.334a3.064,3.064,0,0,0-2.507-1.306H31.736V6.436a3.065,3.065,0,0,0-3.061-3.061H4.186A3.065,3.065,0,0,0,1.125,6.436V37.813H6.2a6.5,6.5,0,0,0,12.8,0H29.16a6.5,6.5,0,0,0,12.8,0h5.079V20.452a2.284,2.284,0,0,0-.415-1.317Zm-37.68-5.9h24.49V23.272H4.186ZM12.6,40.108a3.443,3.443,0,1,1,3.443-3.443A3.443,3.443,0,0,1,12.6,40.108Zm22.958,0a3.443,3.443,0,1,1,3.443-3.443,3.443,3.443,0,0,1-3.443,3.443Zm8.419-5.358h-2.2a6.5,6.5,0,0,0-12.435,0H18.821a6.5,6.5,0,0,0-12.435,0h-2.2V26.332H43.98Zm0-11.48H31.736V14.087h7.621l4.623,6.606Z" transform="translate(-1.125 -3.375)" fill="#8868ba"/>
</svg>
