<svg xmlns="http://www.w3.org/2000/svg" width="30" height="30" viewBox="0 0 45.618 45.618">
  <g id="film-strip-line" transform="translate(-4 -4)">
    <path id="Path_2945" data-name="Path 2945" d="M46.36,4H7.258A3.258,3.258,0,0,0,4,7.258v39.1a3.258,3.258,0,0,0,3.258,3.258h39.1a3.258,3.258,0,0,0,3.258-3.258V7.258A3.258,3.258,0,0,0,46.36,4Zm0,42.36H7.258V7.258h39.1Z" transform="translate(0)" fill="#1c77c3"/>
    <path id="Path_2946" data-name="Path 2946" d="M14.978,29.612a2.1,2.1,0,0,0,2.02.147l14.223-6.517a2.118,2.118,0,0,0,0-3.861L17,12.864a2.118,2.118,0,0,0-3,1.971V27.869a2.1,2.1,0,0,0,.978,1.743ZM16.607,15.6l12.561,5.751L16.607,27.071Z" transform="translate(6.292 5.457)" fill="#1c77c3"/>
    <path id="Path_2947" data-name="Path 2947" d="M8,7h3.258v4.888H8Z" transform="translate(2.517 1.888)" fill="#1c77c3"/>
    <path id="Path_2948" data-name="Path 2948" d="M14,7h3.258v4.888H14Z" transform="translate(6.292 1.888)" fill="#1c77c3"/>
    <path id="Path_2949" data-name="Path 2949" d="M20,7h3.258v4.888H20Z" transform="translate(10.068 1.888)" fill="#1c77c3"/>
    <path id="Path_2950" data-name="Path 2950" d="M26,7h3.258v4.888H26Z" transform="translate(13.843 1.888)" fill="#1c77c3"/>
    <path id="Path_2951" data-name="Path 2951" d="M8,26h3.258v4.888H8Z" transform="translate(2.517 13.843)" fill="#1c77c3"/>
    <path id="Path_2952" data-name="Path 2952" d="M14,26h3.258v4.888H14Z" transform="translate(6.292 13.843)" fill="#1c77c3"/>
    <path id="Path_2953" data-name="Path 2953" d="M20,26h3.258v4.888H20Z" transform="translate(10.068 13.843)" fill="#1c77c3"/>
    <path id="Path_2954" data-name="Path 2954" d="M26,26h3.258v4.888H26Z" transform="translate(13.843 13.843)" fill="#1c77c3"/>
  </g>
</svg>
