<svg xmlns="http://www.w3.org/2000/svg" width="30" height="30" viewBox="0 0 44.436 44.604">
  <g id="house-line" transform="translate(-2.06 -1.999)">
    <path id="Path_2938" data-name="Path 2938" d="M46.175,23.312,25.267,2.4a1.394,1.394,0,0,0-1.965,0L2.395,23.312A1.394,1.394,0,0,0,4.36,25.277L24.278,5.359,44.2,25.291a1.394,1.394,0,0,0,1.965-1.965Z" fill="#4fc391"/>
    <path id="Path_2939" data-name="Path 2939" d="M36.664,37.608H29.7V23.67H15.757V37.608H8.788V18.095L6,20.882V37.608A2.788,2.788,0,0,0,8.788,40.4h9.757V26.457h8.363V40.4h9.757a2.788,2.788,0,0,0,2.788-2.788V20.548L36.664,17.76Z" transform="translate(1.552 6.207)" fill="#4fc391"/>
  </g>
</svg>
