<svg xmlns="http://www.w3.org/2000/svg" width="30" height="30" viewBox="0 0 45.194 45.212">
  <path id="plane" d="M46.427,22.83,31.3,15.163V8.706a6.456,6.456,0,1,0-12.913,0v6.456L3.267,22.83a1.614,1.614,0,0,0-1.017,1.5V32.4a1.583,1.583,0,0,0,2.082,1.534l14.059-5.859v8.07l-5.568,2.776a1.614,1.614,0,0,0-.888,1.452V45.83a1.614,1.614,0,0,0,1.614,1.614,1.452,1.452,0,0,0,.452,0l10.847-3.228,10.847,3.228a1.452,1.452,0,0,0,.452,0,1.614,1.614,0,0,0,1.614-1.614V40.375a1.614,1.614,0,0,0-.888-1.452L31.3,36.145v-8.07L45.362,33.9a1.583,1.583,0,0,0,2.082-1.534V24.3a1.614,1.614,0,0,0-1.017-1.469Zm-2.211,7.1-16.141-6.7V38.147l6.456,3.228v2.308l-9.684-2.825-9.684,2.825V41.375l6.456-3.228V23.233l-16.141,6.7v-4.6l16.141-8.184V8.706a3.228,3.228,0,1,1,6.456,0v8.442l16.141,8.184Z" transform="translate(-2.25 -2.25)" fill="#1c77c3"/>
</svg>
